<?xml version="1.0" encoding="UTF-8"?>
<svg version="1.1" xmlns="http://www.w3.org/2000/svg" width="6871" height="3508">
<path d="M0 0 C2267.43 0 4534.86 0 6871 0 C6871 1157.64 6871 2315.28 6871 3508 C4603.57 3508 2336.14 3508 0 3508 C0 2350.36 0 1192.72 0 0 Z " fill="#F8FAFC" transform="translate(0,0)"/>
<path d="M0 0 C1.6344784 1.3359645 3.28625389 2.64409782 4.95263672 3.93994141 C5.87173828 4.65537109 6.79083984 5.37080078 7.73779297 6.10791016 C8.52154297 6.70990234 9.30529297 7.31189453 10.11279297 7.93212891 C10.91716797 8.66882812 10.91716797 8.66882812 11.73779297 9.42041016 C11.73779297 10.08041016 11.73779297 10.74041016 11.73779297 11.42041016 C12.31013672 11.67822266 12.88248047 11.93603516 13.47216797 12.20166016 C15.94908292 13.53406958 17.87190957 15.07097134 19.98779297 16.92041016 C20.69419922 17.52884766 21.40060547 18.13728516 22.12841797 18.76416016 C23.73779297 20.42041016 23.73779297 20.42041016 23.73779297 22.42041016 C24.39779297 22.42041016 25.05779297 22.42041016 25.73779297 22.42041016 C27.25341797 23.99462891 27.25341797 23.99462891 28.98779297 26.10791016 C31.1567647 28.66675904 33.14503469 30.75977826 35.73779297 32.92041016 C38.78113599 35.45652934 41.20126601 38.12202058 43.76123047 41.12744141 C45.99138965 43.71460235 48.29810679 46.22115317 50.61279297 48.73291016 C58.10044582 56.96258266 64.95664949 65.65643085 71.80029297 74.42041016 C72.64865723 75.5052771 72.64865723 75.5052771 73.51416016 76.61206055 C76.73632046 80.75940937 79.8745821 84.95794826 82.95825195 89.20947266 C83.66892319 90.18867676 84.37959442 91.16788086 85.11180115 92.17675781 C85.64837845 92.91716309 86.18495575 93.65756836 86.73779297 94.42041016 C86.73502759 93.42460796 86.73502759 93.42460796 86.73220634 92.40868855 C86.68765964 76.10869205 86.65476036 59.80871532 86.63416862 43.50867176 C86.623941 35.62546895 86.61004797 27.74230724 86.58691406 19.85913086 C86.56671473 12.97255107 86.55401509 6.0860011 86.54961598 -0.8006075 C86.54705248 -4.43283085 86.54121559 -8.06496905 86.52633286 -11.69716454 C86.4686971 -26.3751416 86.65518269 -41.0023274 87.625 -55.65112305 C87.7027107 -56.85194362 87.78042141 -58.05276419 87.86048698 -59.28997326 C87.98491015 -60.96918849 87.98491015 -60.96918849 88.11184692 -62.68232727 C88.18391924 -63.65601918 88.25599155 -64.62971109 88.33024788 -65.63290882 C88.73779297 -68.57958984 88.73779297 -68.57958984 90.73779297 -75.57958984 C147.82779297 -75.57958984 204.91779297 -75.57958984 263.73779297 -75.57958984 C267.89458187 -67.26601203 266.93718935 -58.04199179 266.92529297 -48.95458984 C266.92468872 -48.09693024 266.92408447 -47.23927063 266.92346191 -46.35562134 C266.77974867 30.91040029 261.71137773 108.51021631 240.20458984 272.64926147 C239.87667132 274.59595612 239.55477349 276.54366988 239.23730469 278.49209595 C236.16786911 297.28482783 231.9137068 315.60388577 227.15234375 334.02008057 C216.89637468 365.27086691 216.89637468 365.27086691 217.05810547 396.90478516 C217.34685547 397.92443359 217.63560547 398.94408203 217.93310547 399.99462891 C218.23990234 401.04263672 218.54669922 402.09064453 218.86279297 403.17041016 C219.14638672 404.17201172 219.42998047 405.17361328 219.72216797 406.20556641 C221.12480214 411.1025892 222.57994968 415.97425687 224.18041992 420.81030273 C227.85683326 431.9725174 230.56601568 443.05166919 232.67529297 454.60791016 C232.83976929 455.49081726 233.00424561 456.37372437 233.17370605 457.28338623 C239.82942759 493.08266805 244.68450295 529.1391716 247.73779297 565.42041016 C247.79495483 566.09934326 247.8521167 566.77827637 247.91101074 567.4777832 C250.06101896 593.27471308 250.94887472 619.03791337 250.92529297 644.92041016 C250.92468872 646.15953156 250.92408447 647.39865295 250.92346191 648.67532349 C250.85781648 698.64550722 246.86415734 748.10710696 238.73779297 797.42041016 C238.6114447 798.19006104 238.48509644 798.95971191 238.35491943 799.75268555 C231.75447868 839.68198942 221.74232117 879.10243632 208.73779297 917.42041016 C208.41745087 918.36796173 208.41745087 918.36796173 208.09063721 919.33465576 C193.01265543 963.85408638 173.25157869 1007.27972498 148.73779297 1047.42041016 C148.22651855 1048.26104004 147.71524414 1049.10166992 147.18847656 1049.96777344 C130.50738998 1077.25965851 111.37352521 1103.66510514 89.72216797 1127.25244141 C87.81221914 1129.3390981 85.9583395 1131.46429969 84.11279297 1133.60791016 C81.35816063 1136.77510264 78.45288112 1139.729304 75.45654297 1142.66650391 C73.78358275 1144.37368376 72.26631971 1146.14633849 70.73779297 1147.98291016 C65.5208899 1154.03217304 59.49636714 1159.3032627 53.6171875 1164.69384766 C51.89896511 1166.27234451 50.1896299 1167.85970375 48.48388672 1169.45166016 C42.11098991 1175.38186659 35.54944313 1181.00058567 28.73779297 1186.42041016 C28.22555176 1186.83226563 27.71331055 1187.24412109 27.18554688 1187.66845703 C-16.88947672 1223.0989686 -66.47164107 1251.22154567 -119.26220703 1271.42041016 C-120.36290527 1271.84273926 -121.46360352 1272.26506836 -122.59765625 1272.70019531 C-166.43707668 1289.34216868 -215.14418767 1303.47764984 -262.17358398 1305.75170898 C-269.02846368 1306.11645091 -276.00868239 1306.98581515 -282.07072544 1310.45555401 C-284.70739499 1311.61641561 -286.63766138 1311.67470911 -289.51512146 1311.68110657 C-290.57884476 1311.68819138 -291.64256805 1311.69527618 -292.73852539 1311.70257568 C-294.48166016 1311.69885956 -294.48166016 1311.69885956 -296.26000977 1311.69506836 C-297.4881691 1311.70017929 -298.71632843 1311.70529022 -299.98170471 1311.71055603 C-303.35008304 1311.72208016 -306.71821535 1311.72452387 -310.08659625 1311.72199273 C-312.90642827 1311.72092143 -315.72623773 1311.72581131 -318.54606491 1311.73059815 C-325.20984497 1311.74169701 -331.87356868 1311.74213093 -338.53735352 1311.73608398 C-345.38437972 1311.73006539 -352.23119932 1311.74230018 -359.07819027 1311.76365405 C-364.97397995 1311.78135731 -370.86970444 1311.78725712 -376.76551968 1311.78401631 C-380.27870324 1311.78221455 -383.79173998 1311.7847261 -387.30489922 1311.79873085 C-391.23663047 1311.8138159 -395.16810642 1311.80426343 -399.09985352 1311.79272461 C-400.81566116 1311.80419022 -400.81566116 1311.80419022 -402.56613159 1311.81588745 C-409.46891096 1311.7714304 -415.65915722 1310.84241654 -422.34966183 1309.15017796 C-425.90001409 1308.26060112 -429.37477969 1307.71209193 -433.00170898 1307.2253418 C-433.67041016 1307.13379318 -434.33911133 1307.04224457 -435.02807617 1306.94792175 C-436.45055281 1306.75385234 -437.87339077 1306.56241432 -439.2965641 1306.3735218 C-441.56701509 1306.07172337 -443.83620966 1305.76164032 -446.10527039 1305.4495697 C-452.54694608 1304.56514632 -458.99061043 1303.69562092 -465.43481445 1302.82983398 C-469.4060765 1302.29571578 -473.37605523 1301.75274056 -477.34544945 1301.20492363 C-478.83615303 1301.00102944 -480.32731425 1300.80044657 -481.818964 1300.60359383 C-489.68450322 1299.56549755 -497.40540408 1298.28696502 -505.11450195 1296.39086914 C-506.12534709 1296.14434774 -506.12534709 1296.14434774 -507.15661335 1295.89284611 C-510.32862607 1295.07531051 -512.50323372 1294.2597257 -515.26220703 1292.42041016 C-515.63414383 1289.6314764 -515.63414383 1289.6314764 -515.62969971 1285.9985199 C-515.63296855 1285.33189758 -515.63623739 1284.66527526 -515.63960528 1283.97845227 C-515.64691567 1281.73418596 -515.63270139 1279.4905648 -515.61865234 1277.24633789 C-515.61944279 1275.64177336 -515.62153875 1274.03720902 -515.62484741 1272.43264771 C-515.6299933 1268.06704493 -515.61642298 1263.70167679 -515.59932041 1259.33611178 C-515.58431862 1254.77616863 -515.58545927 1250.21622896 -515.58465576 1245.65626526 C-515.58096006 1237.99858578 -515.56597673 1230.34099578 -515.54345703 1222.68334961 C-515.51457257 1212.84108831 -515.50423351 1202.99889908 -515.49977493 1193.1566 C-515.49580049 1184.71111897 -515.48329797 1176.26565374 -515.46942806 1167.82018399 C-515.46532213 1165.09743806 -515.46240005 1162.3746927 -515.45963287 1159.65194511 C-515.45475231 1155.38139693 -515.44457003 1151.11089282 -515.43019485 1146.84036636 C-515.42565861 1145.26854538 -515.42283008 1143.69671846 -515.42178726 1142.12489128 C-515.42005113 1139.98832164 -515.41219381 1137.85186366 -515.40264893 1135.71531677 C-515.39967426 1134.51681815 -515.3966996 1133.31831953 -515.3936348 1132.08350277 C-515.26220703 1129.42041016 -515.26220703 1129.42041016 -514.26220703 1128.42041016 C-507.37531091 1127.75448856 -501.63278338 1128.94255356 -495.13720703 1131.04541016 C-455.30490495 1142.83067983 -410.73563339 1144.64718995 -369.44970703 1144.67041016 C-368.35949249 1144.6710849 -367.26927795 1144.67175964 -366.14602661 1144.67245483 C-273.62816429 1144.58228394 -177.45949075 1120.55259754 -97.04296875 1059.8203125 C-95.2736436 1058.42940074 -93.49070172 1057.05792735 -91.70361328 1055.68994141 C-88.1830256 1052.98232413 -84.71352939 1050.21560633 -81.26220703 1047.42041016 C-80.45541504 1046.77241455 -80.45541504 1046.77241455 -79.63232422 1046.11132812 C-69.97606705 1038.28263492 -61.18814848 1029.55554262 -52.38720703 1020.79541016 C-51.8051651 1020.21863525 -51.22312317 1019.64186035 -50.6234436 1019.04760742 C-43.35232077 1011.82737283 -36.62192453 1004.46577468 -30.26220703 996.42041016 C-28.70294898 994.58431874 -27.1411677 992.75036052 -25.57470703 990.92041016 C-14.41160209 977.52121742 -4.459096 963.22542593 4.73779297 948.42041016 C5.11709961 947.81342285 5.49640625 947.20643555 5.88720703 946.58105469 C48.23088081 878.51406543 71.81233667 801.13563869 80.73779297 714.42041016 C80.93824766 712.42561184 81.13875876 710.43081919 81.33935547 708.43603516 C81.47243863 707.09752037 81.60537509 705.75899092 81.73779297 704.42041016 C72.99394547 706.76251217 68.41545875 711.81046735 63.91357422 719.56103516 C62.96839679 721.2968327 62.02334868 723.03270575 61.08276367 724.77099609 C56.63778028 732.73955817 50.62337114 739.49360526 44.73779297 746.42041016 C43.74837625 747.60305489 42.76004557 748.78660929 41.77294922 749.97119141 C36.97211344 755.71423174 32.07264245 761.36085156 27.02954102 766.89331055 C25.61591588 768.45210822 24.21044333 770.01839956 22.81860352 771.59667969 C16.77935745 778.42582592 10.41763922 784.89399171 3.96264648 791.32592773 C2.17103347 793.11215686 0.38486242 794.90370363 -1.40087891 796.69580078 C-7.18654527 802.48513064 -13.01013047 808.13086708 -19.26220703 813.42041016 C-20.41944666 814.44125561 -21.57441135 815.46468594 -22.72705078 816.49072266 C-31.25529056 824.01621418 -40.07450147 831.03738161 -49.17871094 837.8515625 C-51.16092901 839.34414901 -53.125839 840.85660292 -55.08642578 842.37744141 C-70.92714065 854.58995024 -87.88115633 865.5249048 -105.26220703 875.42041016 C-106.03226074 875.85885254 -106.80231445 876.29729492 -107.59570312 876.74902344 C-159.83441702 906.27173512 -215.71267102 926.10845002 -275.26220703 934.42041016 C-276.42719727 934.58557129 -277.5921875 934.75073242 -278.79248047 934.92089844 C-384.87608393 949.26012748 -493.41006793 918.25625315 -603.80786133 843.69311523 C-605.63515473 842.28012288 -607.45114797 840.85414532 -609.26220703 839.42041016 C-610.27613525 838.61845215 -610.27613525 838.61845215 -611.31054688 837.80029297 C-619.53758127 831.26187586 -627.51751247 824.52665319 -635.26220703 817.42041016 C-636.71600583 816.12364189 -638.17409558 814.83166198 -639.63720703 813.54541016 C-640.24306641 813.01173828 -640.84892578 812.47806641 -641.47314453 811.92822266 C-643.29076469 810.35251459 -643.29076469 810.35251459 -645.48876953 808.85009766 C-646.07400391 808.37830078 -646.65923828 807.90650391 -647.26220703 807.42041016 C-647.26220703 806.76041016 -647.26220703 806.10041016 -647.26220703 805.42041016 C-647.92220703 805.42041016 -648.58220703 805.42041016 -649.26220703 805.42041016 C-650.91845703 803.70556641 -650.91845703 803.70556641 -652.76220703 801.48291016 C-655.15147702 798.49995837 -655.15147702 798.49995837 -658.26220703 796.42041016 C-658.26220703 795.76041016 -658.26220703 795.10041016 -658.26220703 794.42041016 C-658.92220703 794.42041016 -659.58220703 794.42041016 -660.26220703 794.42041016 C-661.88330078 792.77587891 -661.88330078 792.77587891 -663.69970703 790.60791016 C-666.23560035 787.5957775 -666.23560035 787.5957775 -668.98486328 784.78369141 C-670.26220703 783.42041016 -670.26220703 783.42041016 -670.26220703 781.42041016 C-670.92220703 781.42041016 -671.58220703 781.42041016 -672.26220703 781.42041016 C-673.63712002 779.91253855 -674.93585165 778.33501255 -676.19970703 776.73291016 C-679.11227328 773.08292665 -682.0477829 769.48811458 -685.11328125 765.96411133 C-711.14473904 735.89525719 -731.54121887 700.85086063 -749.26220703 665.42041016 C-749.68163574 664.59476563 -750.10106445 663.76912109 -750.53320312 662.91845703 C-778.22483778 608.26608656 -793.62676313 547.08336151 -801.00506592 486.50830078 C-801.24887153 484.52868947 -801.505417 482.55065936 -801.76269531 480.57275391 C-807.19806777 437.44950933 -806.98548 390.47451973 -801.26220703 347.42041016 C-801.09257486 346.04252147 -800.92466304 344.66442012 -800.75830078 343.28613281 C-792.33473463 273.9211686 -771.6543964 206.6481696 -738.67626953 144.97509766 C-736.79583771 141.45663903 -735.03277105 137.90132308 -733.32470703 134.29541016 C-720.73301873 108.93215229 -702.41417942 85.0462945 -684.26220703 63.42041016 C-683.40271296 62.38535277 -682.54334328 61.35019208 -681.68408203 60.31494141 C-671.53857889 48.14437309 -660.69403478 36.76131535 -649.51220703 25.54541016 C-649.01652222 25.04704651 -648.5208374 24.54868286 -648.01013184 24.03521729 C-642.27518706 18.27678614 -636.46506032 12.6761574 -630.26220703 7.42041016 C-629.2525674 6.54341008 -628.2434191 5.6658439 -627.23486328 4.78759766 C-618.50501013 -2.68843766 -609.46796717 -9.70073941 -600.26220703 -16.57958984 C-599.20888184 -17.37236328 -599.20888184 -17.37236328 -598.13427734 -18.18115234 C-578.64132789 -32.80311535 -557.84662663 -45.30666765 -536.26220703 -56.57958984 C-535.19679688 -57.13718994 -535.19679688 -57.13718994 -534.10986328 -57.70605469 C-529.53457909 -60.08399844 -524.91526509 -62.35810923 -520.26220703 -64.57958984 C-519.0974585 -65.13912354 -519.0974585 -65.13912354 -517.90917969 -65.70996094 C-425.62274924 -109.73734093 -319.02405396 -122.24664376 0 0 Z " fill="#000000" transform="translate(2689.26220703125,1366.57958984375)"/>
<path d="M0 0 C0.86915039 0.52625977 1.73830078 1.05251953 2.63378906 1.59472656 C13.253972 8.05045336 23.35726229 14.9740554 33.17724609 22.59033203 C34.91751989 23.93621214 36.66892685 25.26571211 38.42578125 26.58984375 C49.65270484 35.07784394 60.2578514 44.17925258 70.5390625 53.78515625 C72.98753152 56.09590932 72.98753152 56.09590932 76 58 C76 58.66 76 59.32 76 60 C76.66 60 77.32 60 78 60 C79.55078125 61.609375 79.55078125 61.609375 81.3125 63.75 C83.30558414 66.10060645 85.08647948 68.06918358 87.5 70 C90.38449261 72.30759409 92.60460397 74.87888759 94.99609375 77.68359375 C97.19054304 80.22025735 99.46674497 82.66805837 101.75 85.125 C107.03209453 90.91852275 111.83738178 97.02199502 116.62207031 103.22802734 C117.94778028 104.93284714 119.29311971 106.61944372 120.6484375 108.30078125 C152 147.31285433 152 147.31285433 152 155 C152.66 155 153.32 155 154 155 C156.6790861 146.03601382 157.24644005 137.48120171 157.4375 128.1875 C157.64152189 118.38062866 158.42411538 108.81576852 159.77874756 99.1065979 C163.09112507 75.24486874 162.4961415 51.43069978 161.36328125 27.4140625 C158.9244131 -26.88661964 158.9244131 -26.88661964 165 -36 C167.9322834 -36.36914349 167.9322834 -36.36914349 171.77029419 -36.36076355 C172.47437405 -36.36332682 173.1784539 -36.3658901 173.90386951 -36.36853105 C176.27484678 -36.37349205 178.6451942 -36.35693863 181.01611328 -36.34057617 C182.71096786 -36.3397304 184.40582355 -36.34020407 186.10067749 -36.34190369 C190.71207781 -36.342767 195.32324564 -36.325087 199.93459177 -36.30418181 C204.74991087 -36.2854709 209.56523487 -36.28366899 214.38058472 -36.28010559 C223.50372288 -36.27076866 232.62675364 -36.24613265 241.74984443 -36.21605712 C252.13420048 -36.1825643 262.51856157 -36.16604 272.90295815 -36.15097082 C294.2686988 -36.11958449 315.63434264 -36.06679205 337 -36 C340.06657376 -30.16884325 340.15729504 -24.39684257 340.16796875 -17.90625 C340.17220352 -17.1087735 340.17643829 -16.311297 340.18080139 -15.48965454 C340.19083544 -12.82638474 340.19067387 -10.16328584 340.1875 -7.5 C340.18689575 -6.56363708 340.1862915 -5.62727417 340.18566895 -4.66253662 C340.02054077 91.44810284 330.55084307 187.53027041 295.98046875 392.46875 C295.74216339 393.59538559 295.50385803 394.72202118 295.2583313 395.88279724 C294.14866907 401.10722292 293.02005051 406.32641009 291.85742188 411.53930664 C291.4608963 413.36083087 291.06440947 415.18236354 290.66796875 417.00390625 C290.38931221 418.20696411 290.38931221 418.20696411 290.10502625 419.43432617 C288.30604147 427.79779684 289.96211348 434.58254398 292.51953125 442.60546875 C293.04674588 444.3047641 293.57366921 446.00414985 294.1003418 447.70361328 C294.37905121 448.59502014 294.65776062 449.486427 294.94491577 450.40484619 C302.32937246 474.08944748 308.83870837 497.97172693 315 522 C315.21958374 522.85299683 315.43916748 523.70599365 315.66540527 524.58483887 C341.4212092 624.73017601 356.65394905 727.78650127 365.9642334 905.73461914 C366.00289318 908.18324813 366.0503913 910.6316199 366.09863281 913.08007812 C366.18259263 917.47309636 366.2417422 921.86588111 366.28408813 926.25949097 C366.30277946 927.93903983 366.32781086 929.61853216 366.35971069 931.29788208 C366.40150857 933.62206152 366.41695094 935.94502284 366.42578125 938.26953125 C366.44323395 938.95013611 366.46068665 939.63074097 366.47866821 940.33197021 C366.45495869 945.66503187 364.84170705 950.15829295 361 954 C358.89797021 954.11005379 356.79219131 954.14859672 354.68731689 954.16062927 C354.02028771 954.16571709 353.35325853 954.17080491 352.66601634 954.17604691 C350.41439068 954.19183541 348.16279724 954.20031323 345.91113281 954.20874023 C344.30335279 954.2182736 342.69557485 954.22816452 341.08779907 954.23838806 C335.79293266 954.26983481 330.49805024 954.29004756 325.203125 954.30859375 C324.30322059 954.31189107 323.40331617 954.31518839 322.47614193 954.31858563 C313.9934741 954.34937054 305.51080284 954.37608679 297.02809525 954.39300442 C286.166167 954.41491829 275.30473271 954.45689432 264.44300199 954.52644199 C256.81239626 954.57364645 249.18192397 954.59793328 241.55117679 954.6052013 C236.99061845 954.61016336 232.43061616 954.62529573 227.87021637 954.6649456 C223.57892271 954.70176259 219.28850374 954.71023832 214.99708176 954.69693947 C213.42206451 954.6969935 211.84700901 954.70732477 210.27213669 954.7286911 C208.12057158 954.75632052 205.97220811 954.74689412 203.82061768 954.72825623 C202.61713306 954.73248816 201.41364845 954.7367201 200.17369461 954.74108028 C195.6588856 953.68684024 194.58904814 951.78251594 192 948 C191.34298706 945.83786011 191.34298706 945.83786011 191.29638672 943.80810547 C191.25121918 942.63229919 191.25121918 942.63229919 191.20513916 941.43273926 C191.19674011 940.58610718 191.18834106 939.7394751 191.1796875 938.8671875 C191.15066345 937.95207397 191.1216394 937.03696045 191.09173584 936.09411621 C191.03077728 934.08685864 190.98075909 932.07924647 190.94024658 930.07147217 C190.87339095 926.79617137 190.77724418 923.52286011 190.67333984 920.24853516 C190.5210972 915.42760317 190.37818412 910.6065173 190.24023438 905.78515625 C189.82957919 891.97698506 189.22978373 878.17581159 188.625 864.375 C188.59348721 863.65338432 188.56197441 862.93176865 188.52950668 862.18828583 C186.47731604 815.33040821 182.75342165 768.69416964 177.81263733 722.05839539 C177.65159767 720.52454948 177.65159767 720.52454948 177.48730469 718.9597168 C177.39278015 718.06939255 177.29825562 717.1790683 177.2008667 716.26176453 C177 714 177 714 177 711 C158.86836969 717.17111628 145.48976334 744.93632782 135 760 C111.82535001 793.22785932 88.45490218 825.94764552 58 853 C56.1450513 854.70748416 54.29087385 856.41580657 52.4375 858.125 C47.63729148 862.47518897 42.72795148 866.64776101 37.65820312 870.68066406 C36.47476539 871.62225675 35.29407192 872.56730282 34.11523438 873.51464844 C-41.79248082 934.39365492 -140.17037208 974.82792219 -238.33984375 975.203125 C-240.18889565 975.21364647 -240.18889565 975.21364647 -242.07530212 975.22438049 C-246.02938502 975.24178429 -249.98338696 975.24881404 -253.9375 975.25 C-254.94745907 975.25066278 -254.94745907 975.25066278 -255.97782135 975.25133896 C-275.81599444 975.25816889 -295.34784559 975.01098031 -315 972 C-316.19399414 971.82839355 -317.38798828 971.65678711 -318.61816406 971.47998047 C-413.77174391 957.66975273 -508.08571251 915.11772665 -576.53125 846.4609375 C-578.78746844 844.211859 -581.10121617 842.09471264 -583.5 840 C-590.19613821 834.07520325 -590.19613821 834.07520325 -593 831 C-593 830.34 -593 829.68 -593 829 C-593.66 829 -594.32 829 -595 829 C-596.69140625 827.35546875 -596.69140625 827.35546875 -598.5625 825.1875 C-599.18253906 824.47980469 -599.80257812 823.77210938 -600.44140625 823.04296875 C-602 821 -602 821 -603 818 C-603.66 818 -604.32 818 -605 818 C-606.70703125 816.15625 -606.70703125 816.15625 -608.8125 813.5 C-609.61816406 812.49066406 -610.42382812 811.48132812 -611.25390625 810.44140625 C-611.69492676 809.88598145 -612.13594727 809.33055664 -612.59033203 808.75830078 C-614.0510271 806.9363531 -615.53560448 805.13644338 -617.02734375 803.33984375 C-673.83857866 734.72345046 -710.20573459 650.28704586 -730.8125 534.5 C-730.96168884 533.39803284 -730.96168884 533.39803284 -731.1138916 532.27380371 C-734.33826033 508.1066773 -735.38535533 483.92734958 -735.3125 459.5625 C-735.31034485 458.25406128 -735.3081897 456.94562256 -735.30596924 455.59753418 C-735.25919845 434.58959605 -734.64834325 413.84562318 -732 393 C-731.90289734 392.22470947 -731.80579468 391.44941895 -731.70574951 390.65063477 C-724.26854538 331.74880393 -708.59186397 275.03293611 -684 221 C-683.525625 219.95344238 -683.05125 218.90688477 -682.5625 217.82861328 C-661.93016575 172.6294407 -633.7604722 130.26728404 -600.30541992 93.54052734 C-598.84808549 91.93457351 -597.3978856 90.32209045 -595.95776367 88.70068359 C-590.47682325 82.53550082 -584.78321077 76.63137506 -578.9375 70.8125 C-578.09123047 69.96236328 -577.24496094 69.11222656 -576.37304688 68.23632812 C-571.41047359 63.28140723 -566.32855561 58.55659177 -561 54 C-559.9516553 53.07457892 -558.90470261 52.14757774 -557.859375 51.21875 C-548.00674372 42.56296079 -537.5692793 34.75377476 -527 27 C-526.35530762 26.52288574 -525.71061523 26.04577148 -525.04638672 25.55419922 C-453.596526 -27.27886092 -362.78160963 -59.35578552 0 0 Z " fill="#000000" transform="translate(5379,1322)"/>
<path d="M0 0 C0.9998291 0.30486328 1.9996582 0.60972656 3.02978516 0.92382812 C63.04270025 19.46326411 121.575715 50.18902761 169.078125 91.48046875 C171.91924317 93.93036343 174.82040522 96.28213345 177.75 98.625 C182.84533925 102.76960539 187.44389003 107.27686359 192 112 C192.845625 112.845625 193.69125 113.69125 194.5625 114.5625 C196.05014175 116.05014175 197.53313736 117.54247245 199.0078125 119.04296875 C199.72710938 119.77128906 200.44640625 120.49960938 201.1875 121.25 C202.19876953 122.27867187 202.19876953 122.27867187 203.23046875 123.328125 C204.90798995 125.07449111 204.90798995 125.07449111 207 126 C207 126.66 207 127.32 207 128 C207.66 128 208.32 128 209 128 C210.3046875 129.2578125 210.3046875 129.2578125 211.875 131.125 C212.49890625 131.85976562 213.1228125 132.59453125 213.765625 133.3515625 C214.50296875 134.22554687 215.2403125 135.09953125 216 136 C216.88924991 137.02983481 217.77996198 138.05840828 218.671875 139.0859375 C279.47446267 209.25144683 316.86353616 292.11845654 345.1875 494.1875 C345.18659363 495.47601364 345.18659363 495.47601364 345.18566895 496.79055786 C345.01781621 585.76785902 323.74280459 672.8937467 237 822 C235.95005859 823.34964844 235.95005859 823.34964844 234.87890625 824.7265625 C226.48957604 835.36092474 217.62637379 845.56247665 208.40478516 855.47753906 C206.97899073 857.02276917 205.57181439 858.58325797 204.16796875 860.1484375 C197.06607474 868.02745665 189.53211269 875.31684101 181.69091797 882.45751953 C180.22474172 883.79498726 178.769551 885.14447877 177.31640625 886.49609375 C171.14618004 892.17999671 164.60706489 897.34097814 157.97314453 902.46386719 C155.91507256 904.06611773 153.87642918 905.69085589 151.83984375 907.3203125 C111.5842129 939.37278962 65.22628185 963.42619734 17 981 C15.44563232 981.57016846 15.44563232 981.57016846 13.85986328 982.15185547 C-28.49786655 997.50078917 -73.21916272 1005.94339735 -118 1010 C-119.4185025 1010.12992844 -119.4185025 1010.12992844 -120.86566162 1010.26248169 C-129.1011446 1010.9613102 -137.28408716 1011.17453381 -145.546875 1011.203125 C-146.91817256 1011.21018576 -148.28946976 1011.21731847 -149.6607666 1011.22451782 C-154.0238498 1011.24406818 -158.38687711 1011.24921009 -162.75 1011.25 C-163.49317978 1011.25029457 -164.23635956 1011.25058914 -165.00205994 1011.25089264 C-186.8113867 1011.25229029 -208.36117816 1011.08811474 -230 1008 C-231.5009238 1007.79356131 -233.00190319 1007.58752658 -234.50292969 1007.38183594 C-317.78481729 995.8325815 -397.88311702 966.92071635 -466 917 C-466.68433105 916.50113281 -467.36866211 916.00226562 -468.07373047 915.48828125 C-480.19119307 906.6300375 -491.5978391 897.15696062 -502.71484375 887.0703125 C-504.92072209 885.07182443 -507.14080127 883.09175321 -509.375 881.125 C-509.98085937 880.59132813 -510.58671875 880.05765625 -511.2109375 879.5078125 C-513.02855765 877.93210444 -513.02855765 877.93210444 -515.2265625 876.4296875 C-515.81179687 875.95789062 -516.39703125 875.48609375 -517 875 C-517 874.34 -517 873.68 -517 873 C-517.66 873 -518.32 873 -519 873 C-520.35386936 871.34997172 -521.68678142 869.6825613 -523 868 C-523.66 867.67 -524.32 867.34 -525 867 C-525 866.34 -525 865.68 -525 865 C-525.66 865 -526.32 865 -527 865 C-527 864.34 -527 863.68 -527 863 C-527.66 863 -528.32 863 -529 863 C-530.62109375 861.35546875 -530.62109375 861.35546875 -532.4375 859.1875 C-534.97339332 856.17536735 -534.97339332 856.17536735 -537.72265625 853.36328125 C-539 852 -539 852 -539 850 C-539.66 850 -540.32 850 -541 850 C-542.37491299 848.49212839 -543.67364462 846.91460239 -544.9375 845.3125 C-547.84988543 841.66274311 -550.78507531 838.06804862 -553.85058594 834.54443359 C-571.4458668 814.21796413 -586.67673575 791.3188341 -600 768 C-600.3722168 767.35562988 -600.74443359 766.71125977 -601.12792969 766.04736328 C-641.62538851 695.72293791 -664.87265845 615.92974683 -670 535 C-670.08612549 533.712146 -670.17225098 532.42429199 -670.26098633 531.09741211 C-671.00946746 519.33370198 -671.20137771 507.59801942 -671.1875 495.8125 C-671.18689575 494.85434387 -671.1862915 493.89618774 -671.18566895 492.90899658 C-671.02554807 398.67005091 -649.62133103 301.5093391 -544.2109375 139.390625 C-540.54141101 135.42286845 -536.95208927 131.37444104 -533.51953125 127.19921875 C-530.33850633 123.35299291 -526.93884365 120.11280813 -523.13671875 116.8828125 C-520.82251743 114.84360768 -518.66404323 112.69756542 -516.5 110.5 C-512.49268951 106.45179859 -508.33889535 102.68693698 -504 99 C-503.07832031 98.20078125 -502.15664062 97.4015625 -501.20703125 96.578125 C-455.73356886 57.34569283 -402.37211556 27.39695533 -346 7 C-344.30423828 6.38342529 -344.30423828 6.38342529 -342.57421875 5.75439453 C-261.92996811 -23.22006196 -172.98022442 -31.26310497 0 0 Z " fill="#000000" transform="translate(3656,1286)"/>
<path d="M0 0 C1.02111877 0.00060425 2.04223755 0.0012085 3.09429932 0.00183105 C32.94627654 0.04976162 61.97850335 2.27430553 90.875 10.1875 C92.21695292 10.52670395 93.55941767 10.86388834 94.90234375 11.19921875 C135.39834661 21.55626471 172.41270886 41.0828686 204.875 67.1875 C205.88949219 67.99574219 206.90398438 68.80398438 207.94921875 69.63671875 C216.15988562 76.34756544 223.67656204 83.77849443 231.1875 91.25 C231.6994693 91.75670227 232.2114386 92.26340454 232.73892212 92.78546143 C239.58598624 99.5780236 245.92456597 106.57908542 251.875 114.1875 C252.505271 114.98937744 253.13554199 115.79125488 253.78491211 116.61743164 C267.16941575 133.83016425 278.65453688 151.94241578 288.875 171.1875 C289.30103516 171.97833984 289.72707031 172.76917969 290.16601562 173.58398438 C302.92044654 197.41115088 312.87513969 223.09240077 319.875 249.1875 C320.31900146 250.83177979 320.31900146 250.83177979 320.77197266 252.50927734 C327.96956273 279.46923222 332.01671667 306.48153893 334.875 334.1875 C335.03730103 335.73836304 335.03730103 335.73836304 335.20288086 337.32055664 C336.17419197 347.98071777 336.07604159 358.68004249 336.0625 369.375 C336.06123108 370.40271515 336.05996216 371.4304303 336.05865479 372.48928833 C335.97251317 409.08986459 331.91947812 445.30246158 322.50830078 480.74072266 C321.95547046 482.87659988 321.45748877 485.01090541 320.99609375 487.16796875 C315.79710129 510.60110868 306.05186174 533.54946408 295.875 555.1875 C295.25093262 556.5182959 295.25093262 556.5182959 294.61425781 557.87597656 C274.24436271 600.89344736 243.2067615 643.43867887 204.875 672.1875 C203.69185202 673.10957937 202.50963108 674.03284896 201.328125 674.95703125 C191.27914881 682.74043388 180.78479406 689.67262598 169.875 696.1875 C169.0917334 696.65542969 168.3084668 697.12335937 167.50146484 697.60546875 C130.13385581 719.64178743 88.565906 731.14921204 45.875 736.875 C44.55193848 737.05409912 44.55193848 737.05409912 43.20214844 737.23681641 C29.17776214 739.02942664 15.17925753 739.39515228 1.0625 739.375 C-0.21849075 739.37359512 -0.21849075 739.37359512 -1.52536011 739.37216187 C-73.68129539 739.20160429 -145.49792848 718.25110277 -201.5625 671.48974609 C-203.15527751 670.16226559 -204.76461802 668.85682021 -206.375 667.55078125 C-220.90292833 655.59420515 -234.65896045 642.11746736 -246.125 627.1875 C-247.02092528 626.09971179 -247.9209661 625.01530533 -248.82421875 623.93359375 C-265.90501838 603.34533244 -279.70431196 580.1061309 -291.24560547 556.015625 C-292.08825382 554.26388961 -292.95187602 552.5222901 -293.81640625 550.78125 C-308.02944966 521.4977638 -317.21323912 489.91084972 -324.125 458.1875 C-324.31932617 457.30368652 -324.51365234 456.41987305 -324.71386719 455.50927734 C-330.64077746 428.06240752 -332.31232533 400.14379441 -332.31030273 372.13696289 C-332.31247591 368.78714013 -332.33066191 365.43765495 -332.34960938 362.08789062 C-332.58238433 272.60254561 -304.63132365 180.03027534 -246.125 111.1875 C-245.25054662 110.12822736 -244.37689163 109.06829529 -243.50390625 108.0078125 C-233.03619817 95.41000546 -221.62194312 83.3008915 -208.69140625 73.203125 C-206.93293198 71.82204019 -205.21244607 70.3915883 -203.52734375 68.921875 C-148.26698352 20.7342191 -72.03686032 -0.07842565 0 0 Z " fill="#FEFEFE" transform="translate(3491.125,1408.8125)"/>
<path d="M0 0 C1.00808716 -0.00172211 2.01617432 -0.00344421 3.05480957 -0.00521851 C21.54023235 -0.0016467 39.82051033 1.11702654 58 4.625 C59.70615479 4.95032715 59.70615479 4.95032715 61.44677734 5.28222656 C72.0055743 7.3634923 82.26952085 10.04553209 92.5 13.375 C93.44456055 13.67857422 94.38912109 13.98214844 95.36230469 14.29492188 C139.6042456 28.73711868 181.80345444 53.50255429 216.0234375 85.109375 C217.36181466 86.33375789 218.70755018 87.5511389 220.09057617 88.72485352 C226.46849053 94.15546124 232.34604855 100.06979053 238.25463867 105.99926758 C240.05862085 107.80860933 241.86788665 109.61254319 243.67773438 111.41601562 C249.49800723 117.23268305 255.19914095 123.07390884 260.5 129.375 C261.345625 130.33921875 262.19125 131.3034375 263.0625 132.296875 C288.56394353 161.88508832 309.91964176 195.08885343 328.5 229.375 C328.96277344 230.22529785 329.42554687 231.0755957 329.90234375 231.95166016 C371.96458337 309.62146645 371.96458337 309.62146645 365.625 336.9375 C365.407229 337.87948242 365.18945801 338.82146484 364.96508789 339.79199219 C361.63716033 353.56379476 357.05440884 366.97120681 352.5 380.375 C352.14941528 381.41065094 352.14941528 381.41065094 351.79174805 382.46722412 C341.93404868 411.56434583 330.81169527 440.03020238 317.69628906 467.82666016 C316.60000424 470.16197055 315.52563425 472.50562909 314.4609375 474.85546875 C300.42680593 505.6403618 282.58202273 535.92873821 261.83007812 562.64794922 C259.82280761 565.25430598 257.88629555 567.91227626 255.9375 570.5625 C251.06108939 577.06733086 245.81366163 583.22702869 240.5 589.375 C239.860625 590.11621094 239.22125 590.85742188 238.5625 591.62109375 C236.88638104 593.54940654 235.19475893 595.46306372 233.5 597.375 C232.88511719 598.08269531 232.27023437 598.79039062 231.63671875 599.51953125 C226.75800075 605.05977034 221.64660763 610.33353095 216.4375 615.5625 C215.77693604 616.22765625 215.11637207 616.8928125 214.43579102 617.578125 C194.61094155 637.34158202 171.7393024 653.51779881 147.5 667.375 C146.74557617 667.81054199 145.99115234 668.24608398 145.21386719 668.69482422 C105.50149665 691.39633538 59.31482842 702.61934694 13.75 702.5625 C12.93152588 702.56222809 12.11305176 702.56195618 11.26977539 702.56167603 C-2.07971632 702.5413242 -15.23965689 702.00574658 -28.5 700.375 C-29.34240234 700.27848145 -30.18480469 700.18196289 -31.05273438 700.08251953 C-86.42851673 693.6417534 -140.00361961 671.44399654 -181.24609375 633.4453125 C-183.25303483 631.60184843 -185.29912242 629.82720907 -187.375 628.0625 C-195.7472669 620.73888067 -203.415317 612.82716622 -210.31640625 604.10546875 C-211.74102686 602.32405585 -213.20621073 600.57412964 -214.71484375 598.86328125 C-239.8484255 570.21685279 -257.86927269 533.860727 -270.50488281 498.17382812 C-271.44872133 495.51922442 -272.41929243 492.87612273 -273.3984375 490.234375 C-281.43491825 468.31787985 -285.93385591 445.88262742 -289.87548828 422.94702148 C-290.40802938 419.90104465 -290.98242022 416.86760662 -291.5703125 413.83203125 C-299.04026152 372.63297568 -297.40316469 328.62343417 -291.5 287.375 C-291.25612638 285.48736282 -291.01486897 283.59938401 -290.77734375 281.7109375 C-282.34311285 217.3328005 -256.83122729 152.74743326 -215.5 102.375 C-214.675 101.34761719 -213.85 100.32023437 -213 99.26171875 C-200.25526186 83.70052793 -185.51550134 68.35635626 -169.1640625 56.58154297 C-167.36932775 55.28025495 -165.6062642 53.94222131 -163.84375 52.59765625 C-155.41311126 46.21203552 -146.73405111 40.52660699 -137.5 35.375 C-136.27095947 34.68470703 -136.27095947 34.68470703 -135.01708984 33.98046875 C-113.78862225 22.17259611 -91.82622633 13.5752379 -68.1796875 8.01538086 C-65.31046394 7.32970544 -62.45763235 6.58998486 -59.6015625 5.8515625 C-39.8490938 0.93475413 -20.26527478 -0.00881985 0 0 Z " fill="#FEFEFE" transform="translate(2361.5,1432.625)"/>
<path d="M0 0 C1.0371817 -0.00190338 2.0743634 -0.00380676 3.14297485 -0.00576782 C20.83418631 -0.00209247 38.47010818 0.65529191 55.75 4.75 C56.71808594 4.97131592 57.68617187 5.19263184 58.68359375 5.4206543 C61.43866178 6.0573046 64.18844914 6.71292769 66.9375 7.375 C67.63149902 7.53726074 68.32549805 7.69952148 69.04052734 7.86669922 C110.39468872 17.60025346 149.63088802 38.31610806 182.9375 64.375 C183.84757812 65.08269531 184.75765625 65.79039063 185.6953125 66.51953125 C188.1332713 68.44402928 190.5408682 70.39929562 192.9375 72.375 C193.9171875 73.18066406 194.896875 73.98632812 195.90625 74.81640625 C211.82800136 88.03349328 227.73894221 102.34960619 241.09375 118.19140625 C242.63319092 120.01460006 244.19767482 121.80525273 245.78125 123.58984375 C274.6529055 156.2516177 298.03469391 193.24950617 318.9375 231.375 C319.3598291 232.13699707 319.7821582 232.89899414 320.21728516 233.68408203 C330.35091934 251.98679839 338.7624018 271.22712807 347.15197754 290.37808228 C347.70692126 291.64396026 348.26389002 292.90895289 348.82312012 294.17294312 C355.24599276 308.72132233 360.08833733 320.54013329 355.9375 336.25 C355.71457275 337.11238281 355.49164551 337.97476562 355.26196289 338.86328125 C352.19582961 350.48101166 348.60355544 361.93514024 344.9375 373.375 C344.4957515 374.76203894 344.0540203 376.1490834 343.61230469 377.53613281 C333.74962846 408.4131488 321.98024807 438.14568341 307.9375 467.375 C307.30231445 468.70313721 307.30231445 468.70313721 306.65429688 470.05810547 C292.96153694 498.53405511 276.64544054 525.90967625 257.9375 551.375 C257.16019531 552.43589844 256.38289063 553.49679687 255.58203125 554.58984375 C253.39266588 557.53870578 251.174378 560.46203624 248.9375 563.375 C248.52709473 563.91157227 248.11668945 564.44814453 247.69384766 565.00097656 C230.59114155 587.30326524 211.49974176 609.26113147 189.9375 627.375 C189.009375 628.18066406 188.08125 628.98632812 187.125 629.81640625 C128.89544051 680.18401643 56.21081687 708.27452394 -21.17327881 703.23760986 C-30.21947791 702.50080662 -39.14555162 701.0310047 -48.0625 699.375 C-49.71040527 699.07746826 -49.71040527 699.07746826 -51.39160156 698.77392578 C-76.98047879 694.01997682 -102.5805592 685.89569365 -125.96142578 674.40722656 C-128.00496661 673.4032653 -130.06070946 672.42976396 -132.12109375 671.4609375 C-161.65101285 657.37637407 -186.83956021 637.69062579 -209.9375 614.75 C-210.42432251 614.26862579 -210.91114502 613.78725159 -211.41271973 613.29129028 C-218.09000622 606.66975605 -224.25637699 599.77698312 -230.0625 592.375 C-230.60600098 591.6855127 -231.14950195 590.99602539 -231.70947266 590.28564453 C-243.69675892 574.8984438 -253.93394978 558.59912261 -263.0625 541.375 C-263.58191162 540.39611816 -263.58191162 540.39611816 -264.11181641 539.39746094 C-276.71987034 515.41080738 -286.64004247 490.28098927 -293.37158203 464.04785156 C-294.01870429 461.54442594 -294.69106222 459.04933761 -295.37109375 456.5546875 C-299.26485249 442.01618552 -301.87110187 427.25751906 -304.0625 412.375 C-304.23056152 411.2391748 -304.39862305 410.10334961 -304.57177734 408.93310547 C-311.53647802 359.05430092 -307.98149042 307.38898888 -297.0625 258.375 C-296.80098145 257.19147949 -296.53946289 256.00795898 -296.27001953 254.78857422 C-290.14126596 227.56009464 -280.94104691 201.61312299 -269.0625 176.375 C-268.64500488 175.48490234 -268.22750977 174.59480469 -267.79736328 173.67773438 C-252.71411392 141.82401776 -232.53452113 112.72651875 -208.0625 87.375 C-207.46646973 86.75705566 -206.87043945 86.13911133 -206.25634766 85.50244141 C-198.58088949 77.58941424 -190.80851116 70.1124128 -182.0625 63.375 C-180.79891473 62.37180428 -179.53593816 61.36784158 -178.2734375 60.36328125 C-148.21645042 36.65821422 -113.22957449 18.80094579 -76.0625 9.375 C-75.27617187 9.17068359 -74.48984375 8.96636719 -73.6796875 8.75585938 C-67.17934629 7.09052428 -60.64571155 5.67199724 -54.0625 4.375 C-52.56565674 4.07432617 -52.56565674 4.07432617 -51.03857422 3.76757812 C-34.03072962 0.504554 -17.2703526 0.00341103 0 0 Z " fill="#FEFEFE" transform="translate(5132.0625,1428.625)"/>
<path d="M0 0 C1 1 1 1 1.12304783 3.48127079 C1.12212604 4.59387492 1.12120424 5.70647905 1.12025452 6.85279846 C1.12162918 8.12471039 1.12300385 9.39662231 1.12442017 10.70707703 C1.12088055 12.12966942 1.11724573 13.55226158 1.11352539 14.97485352 C1.11324353 16.46266681 1.11340124 17.95048024 1.1139679 19.43829346 C1.1142559 23.48977 1.10835867 27.5412172 1.10139394 31.59268689 C1.09516092 35.82211997 1.09455664 40.05155364 1.09336853 44.2809906 C1.09025506 52.29559722 1.08204146 60.31019027 1.07201904 68.32479089 C1.06085839 77.44676684 1.05534758 86.56874342 1.05032361 95.69072449 C1.03985886 114.4604907 1.02225912 133.23024426 1 152 C-0.41390655 151.69597837 -1.8271984 151.38909724 -3.24023438 151.08105469 C-4.02732788 150.91047546 -4.81442139 150.73989624 -5.62536621 150.56414795 C-9.32678725 149.68479169 -12.89525545 148.45698277 -16.5 147.25 C-69.04553306 130.32011753 -130.7514422 124.47144022 -181.515625 150.234375 C-189.32226527 154.38106439 -196.3744583 159.1237118 -203 165 C-203.95261719 165.82113281 -204.90523437 166.64226562 -205.88671875 167.48828125 C-217.32951018 177.51546962 -226.59867852 188.65934647 -234 202 C-234.3309668 202.59619141 -234.66193359 203.19238281 -235.00292969 203.80664062 C-246.32635033 224.50303625 -251.72546444 247.18038076 -257 270 C-257.26540038 271.14134289 -257.26540038 271.14134289 -257.53616238 272.30574322 C-258.05949353 275.34557532 -258.14014691 278.21079463 -258.15821838 281.29585266 C-258.17287942 283.19540317 -258.17287942 283.19540317 -258.18783665 285.13332844 C-258.19375032 286.53460467 -258.19957553 287.93588128 -258.20532227 289.3371582 C-258.21504241 290.83961601 -258.22518814 292.34207112 -258.23572445 293.84452343 C-258.26273653 297.86363486 -258.28393286 301.88275717 -258.30391693 305.90190887 C-258.32356081 309.67498564 -258.34845973 313.44802062 -258.3729248 317.22106934 C-258.4413911 328.25151475 -258.50143194 339.28201115 -258.5625 350.3125 C-258.706875 374.959375 -258.85125 399.60625 -259 425 C-173.2 425 -87.4 425 1 425 C1 472.19 1 519.38 1 568 C-84.8 568 -170.6 568 -259 568 C-258.98952637 589.46385742 -258.97905273 610.92771484 -258.96826172 633.04199219 C-258.96156217 647.37554926 -258.95489649 661.70910629 -258.94869995 676.04266357 C-258.94830528 676.95330307 -258.94791062 677.86394256 -258.94750399 678.80217719 C-258.93425045 709.46571268 -258.9237505 740.12924847 -258.91531372 770.79278564 C-258.91489955 772.29424363 -258.91489955 772.29424363 -258.91447701 773.8260341 C-258.90849075 795.58151257 -258.90295045 817.33699115 -258.89786934 839.09246986 C-258.89537474 849.7618419 -258.89278162 860.43121393 -258.89013672 871.10058594 C-258.8898752 872.16229875 -258.88961368 873.22401157 -258.88934424 874.3178975 C-258.88082638 908.71139374 -258.86580737 943.1048834 -258.84740556 977.49837565 C-258.82852472 1012.85151789 -258.81622548 1048.20465648 -258.81217002 1083.55780368 C-258.81159374 1088.55482455 -258.81094246 1093.55184541 -258.81024551 1098.54886627 C-258.81004324 1100.0240483 -258.81004324 1100.0240483 -258.80983689 1101.52903198 C-258.80747638 1117.33968929 -258.79820814 1133.15033532 -258.78633593 1148.96098803 C-258.77453933 1164.86828227 -258.77006958 1180.77556535 -258.77299725 1196.6828638 C-258.77451471 1206.12570419 -258.77049595 1215.56850366 -258.75840491 1225.01133664 C-258.75086796 1231.33119387 -258.75069866 1237.65102451 -258.75633637 1243.97088362 C-258.75933628 1247.56411791 -258.75930794 1251.15727519 -258.75023364 1254.75050101 C-258.63019516 1305.35664987 -269.21022696 1349.7864073 -303 1389 C-304.01707031 1390.20076172 -304.01707031 1390.20076172 -305.0546875 1391.42578125 C-309.36837248 1396.41924927 -313.89550804 1400.82513406 -319 1405 C-319.98484375 1405.82242188 -320.9696875 1406.64484375 -321.984375 1407.4921875 C-354.27187632 1433.99379148 -392.42686722 1447 -434 1447 C-434 1156.93 -434 866.86 -434 568 C-490.76 568 -547.52 568 -606 568 C-606 520.81 -606 473.62 -606 425 C-550.23 424.67 -494.46 424.34 -437 424 C-435.03263326 420.06526652 -434.41270558 416.89771802 -433.9375 412.625 C-433.70353516 410.69527344 -433.70353516 410.69527344 -433.46484375 408.7265625 C-433.30449405 407.15158227 -433.15000333 405.57599929 -433 404 C-432.91568726 403.15405777 -432.83137451 402.30811554 -432.74450684 401.4365387 C-431.75354422 389.82886411 -431.81733972 378.20792102 -431.77020454 366.56594276 C-431.75357277 362.59618539 -431.73051958 358.62649356 -431.70530701 354.65678406 C-431.63486163 343.37760103 -431.57482399 332.09837619 -431.52319336 320.8190918 C-431.49450105 314.56669701 -431.45892169 308.31437539 -431.41653961 302.06205815 C-431.39459246 298.77666491 -431.37704159 295.4913469 -431.36609077 292.20589638 C-431.29188273 270.2471355 -430.66827491 248.16978405 -427.25 226.4375 C-426.99621582 224.79019897 -426.99621582 224.79019897 -426.73730469 223.10961914 C-418.14535215 169.63120051 -398.09972582 117.70103172 -363 76 C-362.16239136 74.99453125 -362.16239136 74.99453125 -361.30786133 73.96875 C-352.8872804 63.89429824 -344.10433978 54.42303039 -334 46 C-333.49259277 45.57348145 -332.98518555 45.14696289 -332.46240234 44.70751953 C-318.10646328 32.70095895 -302.55256016 22.70731755 -286 14 C-285.20513184 13.57750977 -284.41026367 13.15501953 -283.59130859 12.71972656 C-199.46922067 -31.4125357 -88.74624471 -29.43353986 0 0 Z " fill="#000000" transform="translate(1570,850)"/>
<path d="M0 0 C0.81274384 0.00126892 1.62548767 0.00253784 2.46286011 0.00384521 C81.23693596 0.23693596 81.23693596 0.23693596 93.1875 12.1875 C93.284437 14.33909726 93.30936783 16.49394111 93.30775452 18.64772034 C93.30860894 19.33052801 93.30946337 20.01333568 93.31034368 20.71683449 C93.31200043 23.02161691 93.30647397 25.32632772 93.30102539 27.63110352 C93.30074353 29.27655028 93.30090122 30.92199716 93.3014679 32.56744385 C93.30175593 37.04865759 93.29585821 41.52984481 93.28889394 46.01105237 C93.28266142 50.68892105 93.28205668 55.36679028 93.28086853 60.04466248 C93.27775491 68.90925168 93.26954111 77.77382862 93.25951904 86.63841242 C93.24835885 96.72772202 93.24284769 106.8170322 93.23782361 116.90634644 C93.22735852 137.66673782 93.20975849 158.42711814 93.1875 179.1875 C92.64683207 179.0735492 92.10616413 178.95959841 91.54911232 178.84219456 C89.06743579 178.31923216 86.58572014 177.79645562 84.10400391 177.27368164 C82.82844383 177.00484035 82.82844383 177.00484035 81.52711487 176.73056793 C24.16435962 164.64887782 -33.09396815 160.83867425 -89.8125 178.1875 C-91.0504834 178.56382568 -91.0504834 178.56382568 -92.31347656 178.94775391 C-124.91522756 189.07474607 -154.90895357 206.90438981 -179.8125 230.1875 C-181.4360906 231.62659167 -183.06112543 233.06405536 -184.6875 234.5 C-193.23265181 242.19736509 -201.48723482 250.31207496 -208.8125 259.1875 C-209.2240332 259.67992187 -209.63556641 260.17234375 -210.05957031 260.6796875 C-229.27528147 283.75479096 -244.36489613 309.41720748 -257.8125 336.1875 C-258.22097168 336.99509766 -258.62944336 337.80269531 -259.05029297 338.63476562 C-265.97698061 352.42424694 -271.57553056 366.68120776 -276.8125 381.1875 C-277.16374939 382.1584964 -277.16374939 382.1584964 -277.52209473 383.14910889 C-298.42368455 441.11503499 -309.4394061 501.93218972 -314.8125 563.1875 C-314.9555726 564.81050187 -314.9555726 564.81050187 -315.10153556 566.46629167 C-317.04669852 589.37980565 -317.12274613 612.24000196 -317.12917423 635.22107196 C-317.13292321 640.79525416 -317.14810463 646.36940794 -317.16178894 651.943573 C-317.1838958 661.56529303 -317.19900786 671.18700272 -317.20915604 680.80874252 C-317.22383843 694.71958673 -317.24940094 708.63039486 -317.27748732 722.5412177 C-317.32278322 745.1191036 -317.35948532 767.69699359 -317.390625 790.27490234 C-317.42086721 812.18702107 -317.45524155 834.09912706 -317.49511719 856.01123047 C-317.49634819 856.68857418 -317.49757919 857.36591789 -317.4988475 858.06378717 C-317.51121607 864.86694908 -317.52366764 871.67011084 -317.53617998 878.47327249 C-317.64083112 935.37799973 -317.72991548 992.28273561 -317.8125 1049.1875 C-374.9025 1049.1875 -431.9925 1049.1875 -490.8125 1049.1875 C-490.8125 708.9575 -490.8125 368.7275 -490.8125 18.1875 C-433.7225 18.1875 -376.6325 18.1875 -317.8125 18.1875 C-317.8125 76.2675 -317.8125 134.3475 -317.8125 194.1875 C-317.1525 194.1875 -316.4925 194.1875 -315.8125 194.1875 C-315.53947052 193.45169205 -315.26644104 192.71588409 -314.98513794 191.95777893 C-313.87646636 189.33861627 -312.64389288 187.20980336 -311.05029297 184.86303711 C-310.49566376 184.04125473 -309.94103455 183.21947235 -309.36959839 182.37278748 C-308.7706778 181.49566605 -308.1717572 180.61854462 -307.5546875 179.71484375 C-306.93280548 178.79594864 -306.31092346 177.87705353 -305.67019653 176.93031311 C-303.68038698 173.9921817 -301.68412337 171.0585042 -299.6875 168.125 C-298.36674424 166.178035 -297.04642713 164.23077234 -295.7265625 162.28320312 C-293.80791605 159.45230318 -291.88882986 156.62171233 -289.96754456 153.79260254 C-286.71305458 148.99957564 -283.4744537 144.19740187 -280.26953125 139.37109375 C-277.12325788 134.63513775 -273.90607243 129.95594029 -270.625 125.3125 C-269.8834668 124.25289062 -269.8834668 124.25289062 -269.12695312 123.171875 C-264.7899505 117.02350237 -260.21009197 111.45799012 -254.8125 106.1875 C-254.02230469 105.38570312 -253.23210937 104.58390625 -252.41796875 103.7578125 C-248.12429777 99.41558627 -243.8116253 95.1655889 -239.1640625 91.203125 C-237.30410694 89.60887738 -235.47255979 87.99390854 -233.6484375 86.359375 C-170.24448722 29.90344457 -84.47540794 -0.13670038 0 0 Z " fill="#000000" transform="translate(4563.8125,1247.8125)"/>
<path d="M0 0 C58.41 0 116.82 0 177 0 C177 342.21 177 684.42 177 1037 C118.59 1037 60.18 1037 0 1037 C0 694.79 0 352.58 0 0 Z " fill="#000000" transform="translate(1667,1260)"/>
<path d="M0 0 C1.68301151 1.65015993 3.35088285 3.31596669 5 5 C5.70640625 5.66 6.4128125 6.32 7.140625 7 C29.36597614 28.07292553 41.27068324 60.78114685 42.203125 91.0234375 C42.73006034 126.86171088 32.17997104 159.83412115 7.25 186.1875 C-19.53799642 211.97251372 -54.13907246 219.61338358 -90.28515625 219.2109375 C-123.08453031 218.56112723 -152.48415294 207.82130471 -176.375 185.125 C-194.47434693 166.05550382 -204.91061616 141.75701463 -209 116 C-209.13148437 115.18015625 -209.26296875 114.3603125 -209.3984375 113.515625 C-213.68423672 79.92422572 -204.64754485 44.31061952 -184.1875 17.3125 C-163.58479116 -8.94252409 -134.73176561 -23.33801869 -101.93359375 -27.55859375 C-65.09698479 -31.43019256 -28.57978361 -24.40028879 0 0 Z " fill="#000000" transform="translate(1841,858)"/>
</svg>
