<?xml version="1.0" encoding="UTF-8"?>
<svg id="Layer_1" xmlns="http://www.w3.org/2000/svg" version="1.1" viewBox="0 0 1920 580" preserveAspectRatio="xMidYMid slice" width="100%" height="100%">
  <defs>
    <mask id="logoMask">
      <rect x="0" y="0" width="1920" height="580" fill="white"/>
      <g transform="translate(135, -170)">
        <path fill="black" d="M1242.47,302.71c2.41,1.96,6.42,1.42,9.35,2.01,27.48,5.5,50.89,21.4,69.02,42.27.96,1.11,5.37,7.47,5.83,7.58,2.67.58,1.9-6.98,2.03-8.43.29-3.31,1.05-7.2,1.18-10.47.33-7.88-.94-17.59-.05-25.11.07-.59.27-2.01.9-2.01h39.62c1.04,0,1.66-.61,2.02,1.48.57,3.21.13,10.36.04,13.99-.78,32.15-5.41,64.8-12.31,96.11,12.73,39.85,18.78,81.6,18.72,123.55.23.74-1.01,2.59-1.49,2.59h-39.04c-.31,0-1.49-1.44-1.44-2.05-.4-18.8-1.28-37.56-3.52-56.21-.7-.51-2.47,1.5-2.91,2.04-7.58,9.25-12.84,19.34-21.82,28.29-55.67,55.49-145.66,38.69-180.28-30.69-35.46-71.07-1.52-166.82,80.19-183.01,2.43-.48,6.56.16,8.3-1.9h25.64ZM1226.04,343.09c-81.27,7.04-91.32,133.82-22.01,162.66,57.5,23.93,98.86-29.51,112.04-79.05.34-1.28,1.61-5.68,1.56-6.55-.16-2.35-4.45-11.38-5.72-14.12-15.61-33.7-45.21-66.46-85.86-62.94Z"/>
        <path fill="black" d="M845.4,551.28c-4.41.26-10.2.26-14.61,0-81.87-4.84-128.58-78.83-110.68-156.82,27.73-120.81,204.72-122.65,235.45-3.48,20.35,78.88-26.86,155.38-110.17,160.3ZM831.99,338.34c-103.07,7.37-97.3,182.08,10.42,177.08,105.81-4.92,100.11-184.99-10.42-177.08Z"/>
        <path fill="black" d="M1117.82,302.25v40.4c-20.02-5.41-41.13-5.18-58.82,6.57-28.83,19.15-38.46,61.08-39.81,93.7l.03,108.55h-41.76v-247.85h41.76v42.45l11.66-17.44c21.07-24.78,55.5-34.57,86.93-26.38Z"/>
        <path fill="black" d="M377.08,204.08v36.64c-23.32-8.66-51.46-7.83-59.9,19.82-.65,2.12-2.52,9.29-2.52,11.05v34.26h62.42v34.6h-62.42v168.95c0,23.23-18.83,42.07-42.07,42.07h0v-211.01h-41.39v-34.6h40.37c.74,0,.97-1.66,1.05-2.34,2.34-19.96-2.12-35.59,4.23-56.83,13.62-45.57,58.64-54.85,100.22-42.6Z"/>
        <rect fill="black" x="400.06" y="302.39" width="42.66" height="249.09"/>
        <path fill="black" d="M417.11,199.37c46.01-5.54,47.48,65.41-1.39,58.81-32.81-4.44-32.56-54.71,1.39-58.81Z"/>
        <g>
          <path fill="black" d="M572.11,303.87c2.94-.03,5.92.12,8.74.99,2.28.7,5.09.51,7.29.95,25.43,5.14,49.76,19.81,67.26,38.76,1.55,1.68,7.97,10.51,9.31,10.52,1.02,0,1.3-.62,1.45-1.48.6-3.37-.16-9.07-.02-12.84.33-8.88-.39-20.91.58-29.13.07-.59.27-2.01.9-2.01h40.78c.41,0,.78.97.87,1.46.57,3.11.1,10.43.02,14-.55,24.48-2.84,49.68-7.19,73.79-.96,5.35-4.99,18.14-5,22.31,0,2.04,2.7,9.07,3.27,11.8,19,90.43-11.99,192.05-113.81,208.03-2.91.46-7.17-.12-9.54,1.82h-30.29c-2.36-1.59-25.05-2.79-25.05-4.95v-38.45c0-2.11,6.4.52,7.44.71,31.46,5.74,63.29,2.75,90.02-15.67,28.42-19.59,43.48-53.39,45.83-87.27-3.18-.18-4.06,3.8-5.57,5.78-35.86,46.91-94.62,66.21-148.16,34.65-91.16-53.73-74.4-211.06,33.6-231.94,2.01-.39,5.25.06,7.47-.67,1.5-.49,3-.98,4.58-.99l15.2-.16ZM560.02,344.17c-83.76,8.54-85.63,152.07-5.27,166.88,50.39,9.29,80.72-30.32,95.39-72.69,1.18-3.41,4.87-14.13,4.75-17.09-.1-2.63-5.21-14.06-6.68-17.09-16.45-34.03-47.64-64.15-88.19-60.02Z"/>
          <path fill="black" d="M468.82,361.28h48.84v1.04c11.68-12.4,27.29-20.73,46.89-22.29,34.93-2.77,59.25,15.51,72.77,41.81h44.73c-35.45-100.52-164.9-106.89-213.22-20.57Z"/>
        </g>
        <path fill="black" d="M1136.41,358.12h46.29v.99c11.07-11.75,25.87-19.65,44.44-21.12,33.11-2.62,56.15,14.7,68.97,39.63h42.39c-33.6-95.27-156.29-101.31-202.09-19.49Z"/>
      </g>
    </mask>
  </defs>
  <rect x="0" y="0" width="1920" height="580" fill="white" mask="url(#logoMask)"/>
</svg>
