<?xml version="1.0" encoding="UTF-8"?>
<svg version="1.1" xmlns="http://www.w3.org/2000/svg" width="1024" height="1024">
<path d="M0 0 C337.92 0 675.84 0 1024 0 C1024 337.92 1024 675.84 1024 1024 C686.08 1024 348.16 1024 0 1024 C0 686.08 0 348.16 0 0 Z " fill="#FDFDFD" transform="translate(0,0)"/>
<path d="M0 0 C0.495 0.99 0.495 0.99 1 2 C0.07836462 4.03729925 -0.94205668 6.03003657 -2 8 C-8.45803712 20.41401869 -13.15585709 33.56221349 -17 47 C-17.33773437 48.13953125 -17.67546875 49.2790625 -18.0234375 50.453125 C-21.39633143 61.96661255 -23.97568358 73.50363099 -26.0625 85.3125 C-26.22492188 86.22443115 -26.38734375 87.1363623 -26.5546875 88.07592773 C-27.0667575 91.04661022 -27.54167459 94.02054266 -28 97 C-28.18312744 98.18368164 -28.36625488 99.36736328 -28.55493164 100.58691406 C-30.08307919 111.44979764 -30.3547068 122.165342 -30.3125 133.125 C-30.31167419 134.03410126 -30.31084839 134.94320251 -30.30999756 135.87985229 C-30.26955823 155.33691594 -29.56329823 175.00928181 -25 194 C-24.69738748 195.4170288 -24.39922302 196.83501465 -24.10546875 198.25390625 C-15.94108821 236.93455104 0.89089574 274.33716863 26 305 C26.45793945 305.55945313 26.91587891 306.11890625 27.38769531 306.6953125 C32.6426904 313.08584504 38.00142953 319.28859514 44 325 C49 330 49 330 50.7109375 331.8515625 C75.83137042 358.31945159 113.56871847 378.17017004 148 389 C123.30576003 397.23141332 78.1143399 375.61716858 56.04296875 364.63671875 C37.85680032 355.29768693 21.29161192 343.51373744 6 330 C5.21447754 329.30922363 5.21447754 329.30922363 4.41308594 328.60449219 C0.87042815 325.47423048 -2.58542778 322.26968231 -6 319 C-7.13501953 317.92298828 -7.13501953 317.92298828 -8.29296875 316.82421875 C-23.2611021 301.47438437 -32.32388646 280.2702679 -41 261 C-41.56074219 259.76950928 -41.56074219 259.76950928 -42.1328125 258.51416016 C-66.41015587 204.35609053 -65.33289566 133.68229615 -44.671875 78.68359375 C-40.07378243 66.79900411 -35.05641732 55.21263616 -29 44 C-28.65646484 43.35305176 -28.31292969 42.70610352 -27.95898438 42.03955078 C-19.98929135 27.08727023 -10.29807995 13.42564497 0 0 Z " fill="#1C3C66" transform="translate(305,348)"/>
<path d="M0 0 C62.143038 -2.01666109 121.17976817 17.52320133 167 60 C167.64324219 60.56589844 168.28648437 61.13179688 168.94921875 61.71484375 C209.06716599 98.80502139 230.0606142 164.54566205 232.14257812 217.63574219 C232.66366791 238.12307813 231.40693362 257.76582627 228 278 C227.82871582 279.0327002 227.65743164 280.06540039 227.48095703 281.12939453 C222.32902217 310.89777896 210.1898647 340.51806507 194 366 C192.86467267 362.59401801 193.11941912 361.95975502 194.29296875 358.7109375 C194.7410791 357.43524902 194.7410791 357.43524902 195.19824219 356.13378906 C195.52469727 355.22338867 195.85115234 354.31298828 196.1875 353.375 C199.42301096 344.00837214 202.04102361 334.71010752 204 325 C204.14421387 324.29391602 204.28842773 323.58783203 204.43701172 322.86035156 C207.49067128 307.62983807 208.1720541 292.540721 208.13037109 277.04907227 C208.12502835 274.69996623 208.13034665 272.35105331 208.13671875 270.00195312 C208.14690654 254.06128202 207.43799556 238.52754739 204.625 222.8125 C204.39450013 221.49276639 204.16452614 220.17294084 203.93505859 218.85302734 C203.49069736 216.32083342 203.04129362 213.78951721 202.5859375 211.25927734 C202.12623779 208.70219773 201.68230325 206.14380502 201.25 203.58203125 C192.01300841 152.4899215 165.74256042 106.07251616 130 69 C128.76056641 67.69869141 128.76056641 67.69869141 127.49609375 66.37109375 C122.04003563 60.75886938 116.14001078 55.84478821 110 51 C109.02417969 50.20722656 108.04835938 49.41445313 107.04296875 48.59765625 C98.19046057 41.5490554 88.77524056 35.68167811 79 30 C78.39526855 29.64196289 77.79053711 29.28392578 77.16748047 28.91503906 C59.15990338 18.32842219 37.8061318 9.34182282 17.375 4.875 C16.64933838 4.71032227 15.92367676 4.54564453 15.17602539 4.37597656 C13.1187847 3.91056877 11.05973404 3.45422197 9 3 C7.98035156 2.77054687 6.96070313 2.54109375 5.91015625 2.3046875 C3.94159703 1.86308338 1.97111316 1.43006105 0 1 C0 0.67 0 0.34 0 0 Z " fill="#4A955A" transform="translate(544,284)"/>
<path d="M0 0 C1.23382919 -0.00392761 1.23382919 -0.00392761 2.49258423 -0.00793457 C17.54858976 -0.01302333 31.88481594 1.44443233 46.6875 4.3125 C48.39953985 4.61701051 50.11176902 4.92045924 51.82421875 5.22265625 C91.74694106 12.60210233 127.88715196 32.78814007 159.6875 57.3125 C155.79336262 57.3125 153.35451027 55.61593908 150.0625 53.75 C99.49067242 26.14363079 42.27643289 26.90502826 -13.5625 29.625 C-14.81550903 29.68376312 -16.06851807 29.74252625 -17.35949707 29.80307007 C-78.33848176 32.7172205 -142.88401156 47.86301509 -185.6875 94.875 C-193.38400807 104.02026252 -200.4700443 113.68377226 -206.8125 123.8125 C-207.40768433 124.76286133 -207.40768433 124.76286133 -208.01489258 125.73242188 C-210.71723037 130.13940013 -213.05024109 134.66458625 -215.3125 139.3125 C-216.8445078 134.71647659 -214.82821381 131.45741418 -213.125 127.0625 C-212.76696289 126.13590576 -212.40892578 125.20931152 -212.04003906 124.25463867 C-201.0572761 96.68457832 -185.78410197 71.76190097 -162.3125 53.3125 C-161.67231934 52.80847656 -161.03213867 52.30445313 -160.37255859 51.78515625 C-114.40842192 16.09090536 -57.54866514 0.17800436 0 0 Z " fill="#5AA34F" transform="translate(515.3125,247.6875)"/>
<path d="M0 0 C7.27066116 5.41735537 7.27066116 5.41735537 10.7578125 8.203125 C52.1705955 41.03678927 102.27023846 57.58734267 154.71533203 60.27807617 C162.33089413 60.67346439 169.86792752 61.28890033 177.44165039 62.20629883 C211.76489362 66.24502007 248.8434168 66.67264809 283 61 C284.07540039 60.82307617 285.15080078 60.64615234 286.25878906 60.46386719 C312.05585425 56.05911911 336.94159276 48.17872611 360.4609375 36.69921875 C363.28100003 35.34521522 366.0784374 34.1110962 369 33 C342.4195186 61.67047893 294.48065684 80.53988299 257 88 C255.92943359 88.22558594 254.85886719 88.45117188 253.75585938 88.68359375 C221.78751053 95.24393156 187.58316759 95.89359641 155.53417969 89.50390625 C153.31087326 89.06181526 151.08926182 88.67266621 148.8515625 88.3125 C130.27471375 85.08875184 112.25348308 78.45948687 95 71 C94.27651367 70.68981934 93.55302734 70.37963867 92.80761719 70.06005859 C65.69171841 58.29407314 41.49958855 40.74384412 19.921875 20.703125 C17.20306992 18.18786683 14.45293031 15.71374701 11.6875 13.25 C2.48079238 4.96545049 2.48079238 4.96545049 0 2 C0 1.34 0 0.68 0 0 Z " fill="#1C3361" transform="translate(309,687)"/>
<path d="M0 0 C3.16115776 1.36983503 3.9927092 1.9890638 6 5 C5.38253906 5.71542969 4.76507813 6.43085938 4.12890625 7.16796875 C-6.57224482 19.10940713 -6.57224482 19.10940713 -14 33 C-11.21061788 33.41890218 -11.21061788 33.41890218 -8 33 C-5.25 30.75 -5.25 30.75 -3 28 C-2 27 -1 26 0 25 C4.10162248 26.7505684 7.35596782 29.49216791 10.8125 32.25 C11.40353516 32.71535156 11.99457031 33.18070312 12.60351562 33.66015625 C13.80475512 34.6111921 14.99560408 35.57549073 16.17602539 36.55224609 C17.98266625 38.03585094 17.98266625 38.03585094 19.99389648 39.27978516 C23.09493978 41.43092042 24.7588258 42.84630662 25.54956055 46.62890625 C25.68913581 49.74074809 25.61175375 52.76524075 25.4375 55.875 C25.40591797 56.94492187 25.37433594 58.01484375 25.34179688 59.1171875 C25.25959543 61.74763365 25.14477691 64.37237854 25 67 C24.01 67 23.02 67 22 67 C22 67.66 22 68.32 22 69 C20.02 69.495 20.02 69.495 18 70 C25.36261724 70.11591817 32.72503734 70.20472648 40.08838272 70.25906086 C43.50765493 70.28514091 46.92630228 70.3205065 50.34521484 70.37719727 C54.27694178 70.44198227 58.20841689 70.4661939 62.140625 70.48828125 C63.36678528 70.51408768 64.59294556 70.5398941 65.85626221 70.56648254 C67.56758331 70.56704903 67.56758331 70.56704903 69.31347656 70.56762695 C70.31719299 70.57873001 71.32090942 70.58983307 72.3550415 70.60127258 C75.95931478 69.78192109 76.85902511 67.90964216 79 65 C82.94929279 63.85111482 85.02958859 63.56870604 88.8125 65.25 C91 67 91 67 93 70 C93.50418234 74.63847757 92.77954397 77.25830619 90 81 C86.84203893 82.57898053 83.39329364 82.81928171 80 82 C79.36594238 81.1742749 78.73188477 80.3485498 78.07861328 79.49780273 C73.46975197 75.75844825 69.33713299 76.37185823 63.57421875 76.51171875 C62.59634399 76.51675415 61.61846924 76.52178955 60.61096191 76.52697754 C56.96950832 76.55307357 53.32847372 76.62288087 49.6875 76.6875 C37.4671875 76.8421875 37.4671875 76.8421875 25 77 C25 99.77 25 122.54 25 146 C22.69 146 20.38 146 18 146 C18 137.09 18 128.18 18 119 C15.525 119.99 15.525 119.99 13 121 C2.8412283 122.67258806 -6.02745938 118.16895328 -14.3125 112.6875 C-24.87353207 104.81750014 -31.3931642 93.86884972 -33.5234375 80.78515625 C-36.047837 60.73480284 -30.56424996 44.41975056 -21 27 C-24.3 27 -27.6 27 -31 27 C-31 22.71 -31 18.42 -31 14 C-27.04 14 -23.08 14 -19 14 C-18.67 16.64 -18.34 19.28 -18 22 C-17.3709375 21.16597656 -16.741875 20.33195312 -16.09375 19.47265625 C-10.97997578 12.73487252 -5.74992581 6.21570193 0 0 Z " fill="#F3F5F8" transform="translate(444,367)"/>
<path d="M0 0 C1.89050234 1.570229 3.38849619 3.12857622 5 5 C5.33 2.36 5.66 -0.28 6 -3 C12.27 -3 18.54 -3 25 -3 C25.06812774 4.76341754 25.12301719 12.52666785 25.15543652 20.29030323 C25.17100636 23.89636775 25.1920828 27.50221485 25.22631836 31.1081543 C25.25922567 34.59654017 25.27691805 38.08471864 25.28463173 41.57324791 C25.29276668 43.53334273 25.31613435 45.49335562 25.33988953 47.45332336 C25.34216152 59.69031746 23.40528652 70.57572556 14.4765625 79.52734375 C3.97661457 87.95291173 -9.42604221 87.97402548 -22.1484375 86.6796875 C-29.44942863 85.55488495 -35.85588324 83.09607784 -42 79 C-41.43174347 73.45949887 -39.37113483 68.96284034 -37 64 C-33.53743269 64.57608388 -30.81975508 65.51028123 -27.6875 67.0625 C-22.9855403 68.99277819 -18.76978268 69.43953457 -13.75 69.5 C-13.07670654 69.51812744 -12.40341309 69.53625488 -11.7097168 69.55493164 C-6.70407233 69.49492082 -3.86349536 68.09538204 0 65 C3.53295958 60.7604485 3.26876031 57.28561944 3 52 C1.948125 52.78375 0.89625 53.5675 -0.1875 54.375 C-7.0589953 59.49493768 -13.63785245 59.76994132 -22 59 C-29.21027878 57.31356225 -35.20504388 53.64739277 -40 48 C-45.65942594 38.73656152 -47.35959112 29.71632773 -46 19 C-43.23274695 9.69484758 -37.41573441 2.4855279 -28.87890625 -2.15234375 C-19.58343146 -5.85347775 -8.44350069 -5.49441937 0 0 Z " fill="#182B5C" transform="translate(467,538)"/>
<path d="M0 0 C6.19199628 4.83565424 10.55076496 11.20365221 12 19 C12.72909096 29.01979285 13.00653864 37.48134332 7 46 C6.61199219 46.63035156 6.22398437 47.26070312 5.82421875 47.91015625 C1.42989484 54.10030293 -5.77311443 58.03874041 -13 60 C-24.4796454 61.71941825 -35.67144129 61.00604339 -45.37890625 54.375 C-51.96390103 49.16775536 -57.01582748 42.44609681 -58.30908203 33.97558594 C-59.31288468 22.95136738 -57.90324089 12.66677665 -51 3.6875 C-37.34067189 -10.68140359 -15.82828047 -9.76034261 0 0 Z " fill="#163160" transform="translate(562,541)"/>
<path d="M0 0 C5.8467973 4.50511119 8.81163461 10.46242554 9.91796875 17.6796875 C10.05387801 21.05122916 10.03421604 24.41917545 10.015625 27.79296875 C10.01421005 28.76251999 10.0127951 29.73207123 10.01133728 30.73100281 C10.00575388 33.81809617 9.99320439 36.90511617 9.98046875 39.9921875 C9.97545161 42.08919166 9.97088907 44.18619696 9.96679688 46.28320312 C9.95578987 51.41539271 9.93853663 56.54752768 9.91796875 61.6796875 C3.97796875 61.6796875 -1.96203125 61.6796875 -8.08203125 61.6796875 C-8.74203125 59.3696875 -9.40203125 57.0596875 -10.08203125 54.6796875 C-10.50613281 55.08960938 -10.93023438 55.49953125 -11.3671875 55.921875 C-18.02167208 62.03522567 -24.22123122 63.16340563 -33.14453125 62.99609375 C-39.9720126 62.26068685 -44.67462824 58.84264531 -49.08203125 53.6796875 C-52.92588784 48.18044741 -52.98666319 43.20656465 -52.08203125 36.6796875 C-50.4386744 32.43265826 -48.24095018 29.5711636 -44.64453125 26.8046875 C-39.67519827 24.62302912 -35.478856 23.42817384 -30.02734375 23.484375 C-28.36445312 23.49404297 -28.36445312 23.49404297 -26.66796875 23.50390625 C-25.52585937 23.52066406 -24.38375 23.53742187 -23.20703125 23.5546875 C-21.4590625 23.56822266 -21.4590625 23.56822266 -19.67578125 23.58203125 C-16.81098548 23.60551318 -13.9466159 23.63835609 -11.08203125 23.6796875 C-11.46695864 18.42136089 -11.46695864 18.42136089 -14.45703125 14.3046875 C-19.52397013 11.16801105 -24.27592907 10.96532414 -30.08203125 11.6796875 C-34.53627753 13.08267697 -38.8075634 14.8037455 -43.08203125 16.6796875 C-44.08663656 14.55686081 -45.08558727 12.43135729 -46.08203125 10.3046875 C-46.63890625 9.12132812 -47.19578125 7.93796875 -47.76953125 6.71875 C-49.08203125 3.6796875 -49.08203125 3.6796875 -49.08203125 1.6796875 C-47.41965229 0.87905646 -45.75185 0.08968382 -44.08203125 -0.6953125 C-42.68984375 -1.35660156 -42.68984375 -1.35660156 -41.26953125 -2.03125 C-28.15826584 -7.33359998 -12.19437381 -7.73301754 0 0 Z " fill="#468C4E" transform="translate(686.08203125,539.3203125)"/>
<path d="M0 0 C21.45 0 42.9 0 65 0 C65 5.61 65 11.22 65 17 C50.81 17 36.62 17 22 17 C22 23.6 22 30.2 22 37 C34.54 37 47.08 37 60 37 C60 42.61 60 48.22 60 54 C47.13 54 34.26 54 21 54 C21 63.9 21 73.8 21 84 C14.07 84 7.14 84 0 84 C0 56.28 0 28.56 0 0 Z " fill="#182C5A" transform="translate(314,517)"/>
<path d="M0 0 C3.16115776 1.36983503 3.9927092 1.9890638 6 5 C5.09121094 6.03833984 5.09121094 6.03833984 4.1640625 7.09765625 C-7.96287546 21.25818842 -18.85635863 36.53535248 -23 55 C-19.62176584 55.22267708 -19.62176584 55.22267708 -16 54 C-14.14940281 51.17343946 -13.04179786 48.2030431 -12 45 C-8.26879712 46.33635281 -5.40797607 47.99143208 -2.25 50.375 C1.30055279 53.01965043 4.86778908 55.62285366 8.49609375 58.16015625 C9.27049805 58.70172363 10.04490234 59.24329102 10.84277344 59.80126953 C12.39788133 60.88647706 13.95450919 61.96950994 15.51269531 63.05029297 C16.57955566 63.79690186 16.57955566 63.79690186 17.66796875 64.55859375 C18.63126099 65.22846313 18.63126099 65.22846313 19.61401367 65.91186523 C20.07138916 66.27094971 20.52876465 66.63003418 21 67 C21 67.33 21 67.66 21 68 C7.97071086 68.15552202 -4.98922863 67.68257988 -18 67 C-17.67 64.69 -17.34 62.38 -17 60 C-19.64 60 -22.28 60 -25 60 C-25.84355608 80.95422033 -25.84355608 80.95422033 -16.62890625 99.29296875 C-10.67630747 105.53106388 -3.14627142 111.71334262 5.84765625 112.1328125 C7.43900391 112.12894531 7.43900391 112.12894531 9.0625 112.125 C10.12597656 112.12757813 11.18945312 112.13015625 12.28515625 112.1328125 C14.96704384 112.18438455 14.96704384 112.18438455 17 111 C17.65555119 108.47266765 17.65555119 108.47266765 18 106 C17.01 105.505 17.01 105.505 16 105 C17.11799986 103.66079162 18.24461897 102.32877444 19.375 101 C20.00148438 100.2575 20.62796875 99.515 21.2734375 98.75 C21.84320313 98.1725 22.41296875 97.595 23 97 C23.66 97 24.32 97 25 97 C25 113.17 25 129.34 25 146 C22.69 146 20.38 146 18 146 C18 137.09 18 128.18 18 119 C15.525 119.99 15.525 119.99 13 121 C2.8412283 122.67258806 -6.02745938 118.16895328 -14.3125 112.6875 C-24.87353207 104.81750014 -31.3931642 93.86884972 -33.5234375 80.78515625 C-36.047837 60.73480284 -30.56424996 44.41975056 -21 27 C-24.3 27 -27.6 27 -31 27 C-31 22.71 -31 18.42 -31 14 C-27.04 14 -23.08 14 -19 14 C-18.67 16.64 -18.34 19.28 -18 22 C-17.3709375 21.16597656 -16.741875 20.33195312 -16.09375 19.47265625 C-10.97997578 12.73487252 -5.74992581 6.21570193 0 0 Z " fill="#1F3D69" transform="translate(444,367)"/>
<path d="M0 0 C0 5.94 0 11.88 0 18 C-2.536875 18.12375 -2.536875 18.12375 -5.125 18.25 C-10.11046433 18.71137973 -13.1852774 19.56674966 -17 23 C-20.5200977 27.50104782 -20.46939246 31.5397607 -20.51171875 37.01953125 C-20.52966995 37.87810226 -20.54762115 38.73667328 -20.56611633 39.6212616 C-20.62010741 42.3516251 -20.65407874 45.08181492 -20.6875 47.8125 C-20.720683 49.6686439 -20.75517358 51.52476492 -20.79101562 53.38085938 C-20.87827923 57.92059636 -20.93844179 62.45955108 -21 67 C-27.93 67 -34.86 67 -42 67 C-42 45.22 -42 23.44 -42 1 C-35.73 1 -29.46 1 -23 1 C-23 3.64 -23 6.28 -23 9 C-22.50371094 8.60167969 -22.00742187 8.20335937 -21.49609375 7.79296875 C-14.18121418 2.0881955 -9.63299008 0 0 0 Z " fill="#194E65" transform="translate(628,534)"/>
<path d="M0 0 C1.38009521 4.43545052 0.20942003 7.91521963 -1.0625 12.25 C-1.29219482 13.04849365 -1.52188965 13.8469873 -1.75854492 14.66967773 C-11.29052451 47.06814855 -24.97885106 72.84321906 -55 90 C-55.78133301 90.45020508 -56.56266602 90.90041016 -57.36767578 91.36425781 C-70.4665755 98.81874631 -83.90918162 104.26610193 -98.18310547 109.05273438 C-100.74616487 109.91464029 -103.29810478 110.80220823 -105.84765625 111.703125 C-113.2264139 114.27427973 -113.2264139 114.27427973 -116 115 C-116.66 114.67 -117.32 114.34 -118 114 C-117.01902344 113.5153125 -116.03804687 113.030625 -115.02734375 112.53125 C-111.41142656 110.739115 -107.80431631 108.92996557 -104.20166016 107.11132812 C-102.82226659 106.41505406 -101.44188434 105.72073146 -100.06005859 105.02929688 C-85.41637686 97.66642087 -71.42159052 88.7227229 -59 78 C-58.24332031 77.35289062 -57.48664062 76.70578125 -56.70703125 76.0390625 C-54.08870293 73.7410843 -51.53785654 71.38670996 -49 69 C-48.16227051 68.21326904 -48.16227051 68.21326904 -47.30761719 67.41064453 C-37.41717226 58.04424954 -28.89043388 48.09788479 -21 37 C-20.53722656 36.34999023 -20.07445312 35.69998047 -19.59765625 35.03027344 C-11.83250505 24.00713489 -5.19537215 12.45618276 0 0 Z " fill="#204E73" transform="translate(736,618)"/>
<path d="M0 0 C6.6 0 13.2 0 20 0 C20 21.78 20 43.56 20 66 C13.4 66 6.8 66 0 66 C0 44.22 0 22.44 0 0 Z " fill="#162755" transform="translate(389,535)"/>
<path d="M0 0 C3.49406769 1.66762322 4.82670681 2.74006022 7 6 C7.58714433 10.44552136 7.30512292 12.48510507 5 16.375 C1.77535716 19.19656249 0.10584516 20.00159509 -4.06640625 20.24609375 C-7.22610972 19.84394967 -8.87183386 18.25714591 -11 16 C-11.495 15.01 -11.495 15.01 -12 14 C-29.16 13.67 -46.32 13.34 -64 13 C-64.66 16.3 -65.32 19.6 -66 23 C-64.62223389 22.97905273 -63.24446777 22.95810547 -61.82495117 22.93652344 C-56.72056442 22.8642052 -51.61622307 22.81822978 -46.51147461 22.78027344 C-44.30078521 22.76013936 -42.09014918 22.73282985 -39.87963867 22.69824219 C-36.70478154 22.64980371 -33.53062752 22.62704928 -30.35546875 22.609375 C-29.36475876 22.58872986 -28.37404877 22.56808472 -27.35331726 22.54681396 C-26.43258926 22.54651184 -25.51186127 22.54620972 -24.56323242 22.54589844 C-23.7527092 22.53701599 -22.94218597 22.52813354 -22.10710144 22.51898193 C-20 23 -20 23 -18.20307922 24.8291626 C-17 27 -17 27 -17.1875 30.1875 C-17.455625 31.115625 -17.72375 32.04375 -18 33 C-20.54938815 34.27469407 -22.33040998 34.12016184 -25.18408203 34.11352539 C-26.26505157 34.11344986 -27.34602112 34.11337433 -28.45974731 34.11329651 C-30.21603958 34.10555458 -30.21603958 34.10555458 -32.0078125 34.09765625 C-33.20356903 34.0962413 -34.39932556 34.09482635 -35.63131714 34.09336853 C-39.46256987 34.08775663 -43.29376484 34.07520208 -47.125 34.0625 C-49.71744707 34.05748653 -52.30989506 34.05292336 -54.90234375 34.04882812 C-61.26824898 34.03778333 -67.63412037 34.02103359 -74 34 C-74.08144943 31.29105233 -74.14070614 28.58458737 -74.1875 25.875 C-74.21263672 25.11445313 -74.23777344 24.35390625 -74.26367188 23.5703125 C-74.32761857 18.62510158 -73.80651362 15.25076445 -71 11 C-67.8531584 8.06971939 -65.75093034 7.63015415 -61.49707031 7.65942383 C-59.84581146 7.65976372 -59.84581146 7.65976372 -58.16119385 7.66011047 C-56.97878113 7.67559433 -55.79636841 7.69107819 -54.578125 7.70703125 C-53.36300232 7.71127609 -52.14787964 7.71552094 -50.89593506 7.71989441 C-47.01373161 7.73669124 -43.13204664 7.77434662 -39.25 7.8125 C-36.61849708 7.82754548 -33.98698602 7.84123412 -31.35546875 7.85351562 C-24.90346883 7.88659815 -18.45177146 7.93680821 -12 8 C-11.70609375 7.21238281 -11.4121875 6.42476563 -11.109375 5.61328125 C-8.85603489 0.30523712 -5.54029567 -0.67840355 0 0 Z " fill="#448E60" transform="translate(563,390)"/>
<path d="M0 0 C3.35227527 2.4963752 4.80693091 3.84158547 5.5 8 C4.94506497 11.32961021 4.00503147 13.30091917 2 16 C-1.15796107 17.57898053 -4.60670636 17.81928171 -8 17 C-8.94818604 15.77446411 -8.94818604 15.77446411 -9.91552734 14.52416992 C-14.51112656 10.76337363 -18.7349246 11.15305688 -24.51953125 11.08984375 C-25.65090012 11.0684584 -26.78226898 11.04707306 -27.94792175 11.02503967 C-30.34590461 10.99097581 -32.74412009 10.97085287 -35.14233398 10.96362305 C-38.76503857 10.93783782 -42.37742441 10.82160375 -45.99804688 10.70117188 C-59.53812632 10.48037509 -68.74437026 11.5353641 -78.88818359 20.94848633 C-79.40929214 21.46301361 -79.9304007 21.97754089 -80.46730042 22.50765991 C-82.78269846 24.76208822 -85.29007663 26.73164008 -87.8125 28.75 C-88.93591797 29.70132812 -88.93591797 29.70132812 -90.08203125 30.671875 C-92 32 -92 32 -95 32 C-100.99490463 27.14565728 -104.38892488 20.44496826 -106 13 C-106.08061346 10.3304828 -106.02750116 7.67154172 -106 5 C-104.84377136 5.01110306 -103.68754272 5.02220612 -102.49627686 5.03364563 C-91.60766272 5.13493999 -80.719144 5.20992627 -69.83016586 5.25906086 C-64.23179256 5.28517068 -58.63379916 5.32059462 -53.03564453 5.37719727 C-47.63453684 5.43146672 -42.23379487 5.4614101 -36.83243561 5.47438622 C-34.77027883 5.48363514 -32.7081424 5.50169604 -30.64614105 5.52865028 C-27.76072206 5.56487297 -24.87682017 5.56994816 -21.99121094 5.56762695 C-21.13597336 5.58560333 -20.28073578 5.60357971 -19.39958191 5.62210083 C-14.40526516 5.61764922 -14.40526516 5.61764922 -10.56304932 2.52702332 C-10.04724304 1.69310562 -9.53143677 0.85918793 -9 0 C-5.77509551 -1.61245225 -3.43772273 -0.81573082 0 0 Z " fill="#193B69" transform="translate(532,432)"/>
<path d="M0 0 C0 16.17 0 32.34 0 49 C6.24656737 46.54093525 6.24656737 46.54093525 10.60546875 42.609375 C11.19650391 41.98289062 11.78753906 41.35640625 12.39648438 40.7109375 C13.60360571 39.38929102 14.80930625 38.06634564 16.01367188 36.7421875 C16.60083984 36.12085938 17.18800781 35.49953125 17.79296875 34.859375 C18.3139917 34.28670898 18.83501465 33.71404297 19.37182617 33.12402344 C21 32 21 32 23.20043945 32.32128906 C23.79429443 32.54526367 24.38814941 32.76923828 25 33 C24.25393706 38.78449699 19.15652747 42.36279276 15.22705078 46.27392578 C13.75471433 47.74528878 12.30499686 49.23667273 10.85546875 50.73046875 C9.46521484 52.12458984 9.46521484 52.12458984 8.046875 53.546875 C7.19963867 54.40120117 6.35240234 55.25552734 5.47949219 56.13574219 C3 58 3 58 0.40258789 58.47949219 C-2.55971574 57.88829573 -3.49339362 57.02247404 -5.48828125 54.78125 C-6.10872314 54.09973877 -6.72916504 53.41822754 -7.3684082 52.71606445 C-8.0099585 51.98476318 -8.65150879 51.25346191 -9.3125 50.5 C-10.6446831 49.02370082 -11.97800537 47.54842876 -13.3125 46.07421875 C-13.94800781 45.36571777 -14.58351563 44.6572168 -15.23828125 43.92724609 C-17.88425345 41.03266398 -20.70438873 38.33744177 -23.58203125 35.67578125 C-25.4076114 33.51827743 -26.29583524 31.74121283 -27 29 C-24.5965871 22.68078266 -7.74307164 0 0 0 Z " fill="#4C995B" transform="translate(502,325)"/>
<path d="M0 0 C3.93190611 2.22171782 6.01438017 4.10446541 7.8125 8.375 C8.65185698 15.08111257 8.76289312 21.84196662 5.20703125 27.78515625 C1.68287785 31.80288856 -2.58640294 33.15028462 -7.75 33.875 C-12.7289859 33.15078387 -16.33763249 31.6383673 -19.515625 27.75 C-22.89990985 22.03008195 -23.18626407 15.84525417 -22.1875 9.375 C-20.48472013 4.84633012 -18.27060668 2.12846552 -14.3125 -0.625 C-9.04979976 -2.30906408 -5.03322099 -2.23179929 0 0 Z " fill="#F8F9F9" transform="translate(546.1875,551.625)"/>
<path d="M0 0 C4.10162248 1.7505684 7.35596782 4.49216791 10.8125 7.25 C11.40353516 7.71535156 11.99457031 8.18070312 12.60351562 8.66015625 C13.80475512 9.6111921 14.99560408 10.57549073 16.17602539 11.55224609 C17.98266625 13.03585094 17.98266625 13.03585094 19.99389648 14.27978516 C23.09493978 16.43092042 24.7588258 17.84630662 25.54956055 21.62890625 C25.68913581 24.74074809 25.61175375 27.76524075 25.4375 30.875 C25.40591797 31.94492187 25.37433594 33.01484375 25.34179688 34.1171875 C25.25959543 36.74763365 25.14477691 39.37237854 25 42 C22.2812347 40.70385315 19.83544761 39.27703791 17.3828125 37.53125 C16.69952881 37.04688477 16.01624512 36.56251953 15.31225586 36.06347656 C14.22956421 35.28955566 14.22956421 35.28955566 13.125 34.5 C12.00847046 33.70674316 12.00847046 33.70674316 10.86938477 32.89746094 C8.57746515 31.26793315 6.28844995 29.63439587 4 28 C2.58988601 26.99473238 1.17973166 25.98952138 -0.23046875 24.984375 C-3.48954436 22.6598217 -6.74565134 20.33116576 -10 18 C-9.4308221 13.71947031 -7.91990078 10.90496315 -5.5625 7.3125 C-4.94503906 6.35988281 -4.32757813 5.40726562 -3.69140625 4.42578125 C-2 2 -2 2 0 0 Z " fill="#1F5674" transform="translate(444,392)"/>
<path d="M0 0 C5.37842846 1.85800256 8.46081756 4.92163513 11 10 C11.59905733 15.99057326 10.36147412 20.1269196 7 25 C3.30896957 28.69103043 0.12094633 29.33450246 -4.9375 29.625 C-10.18420006 29.45554136 -12.97882324 28.36414427 -16.6953125 24.703125 C-19.82808949 20.61363168 -20.44126699 17.3154397 -20.31640625 12.24609375 C-19.67233102 7.67395479 -16.85249617 4.98166226 -13.9375 1.625 C-9.39497708 -0.88788502 -5.07418842 -0.61188743 0 0 Z " fill="#F8F9F9" transform="translate(461,551)"/>
<path d="M0 0 C0.44730469 0.38671875 0.89460938 0.7734375 1.35546875 1.171875 C1.96003906 1.69265625 2.56460938 2.2134375 3.1875 2.75 C3.83074219 3.30429687 4.47398437 3.85859375 5.13671875 4.4296875 C6.55377264 5.62393417 8.017458 6.7630935 9.5 7.875 C15.16991047 12.6944239 19.63118323 18.71325383 24.1875 24.5625 C24.60346436 25.09222412 25.01942871 25.62194824 25.44799805 26.16772461 C28.36475976 29.96004017 30.87002926 33.72480812 33 38 C32.67 38.99 32.34 39.98 32 41 C29.4375 42.1875 29.4375 42.1875 27 43 C26.42894531 42.09121094 25.85789062 41.18242187 25.26953125 40.24609375 C20.62520048 32.99704721 15.71671302 26.18852929 10.0625 19.6875 C9.50731689 19.04804443 8.95213379 18.40858887 8.38012695 17.74975586 C5.99189786 15.05372194 4.02872289 13.0191486 1 11 C-3.49051325 11.51580963 -6.34735257 14.5039513 -9.625 17.375 C-10.24310547 17.91157227 -10.86121094 18.44814453 -11.49804688 19.00097656 C-19.62240801 26.16977812 -26.75293294 34.13729105 -33 43 C-36.16115776 41.63016497 -36.9927092 41.0109362 -39 38 C-27.98619504 23.33853616 -15.59685124 9.85064289 0 0 Z " fill="#6AAF4D" transform="translate(504,303)"/>
<path d="M0 0 C8.58 0 17.16 0 26 0 C26 1.98 26 3.96 26 6 C20.06 6 14.12 6 8 6 C8 8.97 8 11.94 8 15 C12.29 15 16.58 15 21 15 C21.66 13.68 22.32 12.36 23 11 C23.66 10.34 24.32 9.68 25 9 C28.31854817 9.18101172 30.99748831 9.45023552 33.9375 11.0625 C35.70141999 14.27905997 35.73924763 17.49385409 35 21 C32.9375 23.5625 32.9375 23.5625 30 25 C26.3125 24.9375 26.3125 24.9375 23 24 C22.34 23.01 21.68 22.02 21 21 C18.11404054 20.41518879 18.11404054 20.41518879 14.875 20.3125 C13.77929688 20.24675781 12.68359375 20.18101562 11.5546875 20.11328125 C10.71164062 20.07589844 9.86859375 20.03851563 9 20 C9.08121094 20.95261719 9.16242188 21.90523438 9.24609375 22.88671875 C9.75365595 32.9654539 9.75365595 32.9654539 7.51171875 36.04296875 C5.11513885 37.73496408 2.99265205 39 0 39 C0 26.13 0 13.26 0 0 Z " fill="#25456F" transform="translate(486,453)"/>
<path d="M0 0 C0.33 0 0.66 0 1 0 C1 14.19 1 28.38 1 43 C-4.21311796 39.09016153 -9.38802401 35.16192525 -14.5 31.125 C-15.13164062 30.62742187 -15.76328125 30.12984375 -16.4140625 29.6171875 C-17.94336071 28.41228588 -19.47177742 27.20626558 -21 26 C-20.17728273 22.05022903 -18.63754247 20.16074487 -15.875 17.1875 C-14.65876953 15.87265625 -14.65876953 15.87265625 -13.41796875 14.53125 C-10.82588731 11.81773017 -8.18503174 9.16420161 -5.50390625 6.5390625 C-3.50214631 4.49050817 -1.77099267 2.24779838 0 0 Z " fill="#287371" transform="translate(468,365)"/>
<path d="M0 0 C7.67913088 6.32128526 16.23446594 14.57587651 20 24 C19.79356246 26.61319721 19.28183243 27.70450733 17.46875 29.60546875 C16.8190625 30.12753906 16.169375 30.64960938 15.5 31.1875 C11.33487942 34.65215726 7.56210289 38.39674163 3.78515625 42.27734375 C2 44 2 44 1 44 C-0.41498081 29.37010915 -0.09610148 14.6798704 0 0 Z " fill="#5DA64E" transform="translate(504,325)"/>
<path d="M0 0 C4.53870112 3.70506214 8.44003677 7.5038473 12.22265625 11.97265625 C14.57514544 14.65604502 17.12255663 17.10483373 19.71484375 19.5546875 C21 21 21 21 21 23 C21.66 23 22.32 23 23 23 C23 23.66 23 24.32 23 25 C22.29875 25.07476562 21.5975 25.14953125 20.875 25.2265625 C12.19533324 26.4294511 6.93403166 29.67264636 1 36 C-0.17574711 38.09989652 -0.17574711 38.09989652 -1 40 C-1.33 40 -1.66 40 -2 40 C-2.04935509 34.62485095 -2.08569802 29.24983315 -2.10986328 23.87451172 C-2.11993484 22.04506127 -2.13359276 20.21562697 -2.15087891 18.38623047 C-2.17507677 15.76005066 -2.18647132 13.13408325 -2.1953125 10.5078125 C-2.20563507 9.68693146 -2.21595764 8.86605042 -2.22659302 8.02029419 C-2.22699184 6.01210858 -2.1224954 4.00444618 -2 2 C-1.34 1.34 -0.68 0.68 0 0 Z " fill="#3E8C72" transform="translate(473,358)"/>
<path d="M0 0 C2.84024522 1.80742878 4.2825748 2.73362598 5.75 5.75 C6.15510805 10.00363449 6.20309967 12.61725083 4.625 16.5625 C1.37091727 20.35892985 -1.84331401 21.57416425 -6.75 22.1875 C-10.9315053 21.66481184 -13.00429937 20.39184935 -16.25 17.75 C-18.93408645 13.72387033 -19.05610406 10.48183082 -18.25 5.75 C-14.29323447 -1.60045289 -7.52983482 -2.89609031 0 0 Z " fill="#192E60" transform="translate(405.25,505.25)"/>
<path d="M0 0 C3.35227527 2.4963752 4.80693091 3.84158547 5.5 8 C4.94506497 11.32961021 4.00503147 13.30091917 2 16 C-1.15796107 17.57898053 -4.60670636 17.81928171 -8 17 C-8.62503418 16.17878662 -9.25006836 15.35757324 -9.89404297 14.51147461 C-14.59039861 10.71400484 -18.98943567 11.27218867 -24.86328125 11.29296875 C-26.01040085 11.27784744 -27.15752045 11.26272614 -28.33940125 11.24714661 C-31.99729996 11.20421583 -35.65437428 11.19542582 -39.3125 11.1875 C-41.79494388 11.16436008 -44.27736808 11.13899582 -46.75976562 11.11132812 C-52.83985152 11.04842237 -58.91961456 11.01353099 -65 11 C-65 10.67 -65 10.34 -65 10 C-48.17 10 -31.34 10 -14 10 C-14 9.01 -14 8.02 -14 7 C-32.15 7 -50.3 7 -69 7 C-69 6.67 -69 6.34 -69 6 C-68.30731018 5.99857498 -67.61462036 5.99714996 -66.90093994 5.99568176 C-59.6982044 5.97601164 -52.49631938 5.92179498 -45.29394531 5.84741211 C-42.60506638 5.82141691 -39.91653939 5.80771505 -37.22753906 5.80444336 C-33.36465309 5.79517813 -29.50321042 5.75423602 -25.640625 5.70703125 C-24.4363385 5.7109639 -23.232052 5.71489655 -21.99127197 5.71894836 C-15.54168973 5.81734551 -15.54168973 5.81734551 -10.33496094 2.51831055 C-9.89442383 1.68726807 -9.45388672 0.85622559 -9 0 C-5.77509551 -1.61245225 -3.43772273 -0.81573082 0 0 Z " fill="#417C80" transform="translate(532,432)"/>
<path d="M0 0 C1.52896234 13.69270719 1.52896234 13.69270719 -2.15625 19.25390625 C-9.98301229 26.97946041 -9.98301229 26.97946041 -13.91796875 27.01953125 C-19.60016802 26.50118949 -23.23564967 25.14244383 -28 22 C-23.70108267 17.43185754 -18.90867396 13.6866346 -13.9375 9.875 C-13.13505859 9.25496094 -12.33261719 8.63492187 -11.50585938 7.99609375 C-9.34119315 6.32543849 -7.17401848 4.65846478 -5 3 C-3.91247437 2.15912842 -3.91247437 2.15912842 -2.80297852 1.30126953 C-1 0 -1 0 0 0 Z " fill="#183262" transform="translate(468,445)"/>
<path d="M0 0 C3.16115776 1.36983503 3.9927092 1.9890638 6 5 C5.34773438 5.76183594 4.69546875 6.52367187 4.0234375 7.30859375 C-1.06584295 13.30354408 -5.84036038 19.30399476 -10 26 C-10.144375 25.38125 -10.28875 24.7625 -10.4375 24.125 C-10.93152225 21.96741678 -10.93152225 21.96741678 -12 20 C-15.28788824 23.11016455 -17.83735988 26.01618925 -20 30 C-20.66 29.67 -21.32 29.34 -22 29 C-21.67 28.34 -21.34 27.68 -21 27 C-24.3 27 -27.6 27 -31 27 C-31 22.71 -31 18.42 -31 14 C-27.04 14 -23.08 14 -19 14 C-18.67 16.64 -18.34 19.28 -18 22 C-17.3709375 21.16597656 -16.741875 20.33195312 -16.09375 19.47265625 C-10.97997578 12.73487252 -5.74992581 6.21570193 0 0 Z " fill="#26666D" transform="translate(444,367)"/>
<path d="M0 0 C1.15524418 2.37081442 2.29925208 4.74603957 3.4375 7.125 C3.92573242 8.12273437 3.92573242 8.12273437 4.42382812 9.140625 C4.73642578 9.79804688 5.04902344 10.45546875 5.37109375 11.1328125 C5.65911865 11.72980957 5.94714355 12.32680664 6.24389648 12.94189453 C7 15 7 15 8 21 C-1.57 21 -11.14 21 -21 21 C-19.21389634 17.42779268 -17.89792229 15.64127376 -15.15625 12.890625 C-14.40472656 12.13652344 -13.65320313 11.38242187 -12.87890625 10.60546875 C-12.09386719 9.82816406 -11.30882812 9.05085938 -10.5 8.25 C-9.71496094 7.45722656 -8.92992187 6.66445313 -8.12109375 5.84765625 C-7.36957031 5.09871094 -6.61804688 4.34976562 -5.84375 3.578125 C-4.81024414 2.54800293 -4.81024414 2.54800293 -3.75585938 1.49707031 C-2 0 -2 0 0 0 Z " fill="#4B9A5A" transform="translate(530,362)"/>
<path d="M0 0 C1.38013892 4.43559099 0.20909699 7.91503108 -1.0625 12.25 C-1.29074463 13.04559326 -1.51898926 13.84118652 -1.75415039 14.66088867 C-5.44796354 27.24032601 -10.30183256 39.19953977 -16 51 C-16.495 49.515 -16.495 49.515 -17 48 C-17.99 47.67 -18.98 47.34 -20 47 C-21.70586575 45.37347684 -23.3777546 43.70993434 -25 42 C-24.46632813 41.33097656 -23.93265625 40.66195312 -23.3828125 39.97265625 C-13.8176192 27.64381714 -6.13802471 14.34700897 0 0 Z " fill="#266674" transform="translate(736,618)"/>
<path d="M0 0 C3.49406769 1.66762322 4.82670681 2.74006022 7 6 C7.58714433 10.44552136 7.30512292 12.48510507 5 16.375 C1.03266561 19.8464176 -0.77466563 20.08294182 -6 20 C-8.5 19.125 -8.5 19.125 -10 17 C-10.32168978 13.97075457 -10.22894709 11.03354892 -10 8 C-10.66 8 -11.32 8 -12 8 C-9.89880152 1.52130467 -6.9105241 -0.84618663 0 0 Z " fill="#5EA558" transform="translate(563,390)"/>
<path d="M0 0 C0.84046875 0.01804687 1.6809375 0.03609375 2.546875 0.0546875 C4.61507395 0.10169202 6.68268441 0.17343276 8.75 0.25 C8.8598532 4.93491587 8.84223167 7.55927188 5.75 11.25 C1.01508478 13.8906258 -2.84941821 14.95007542 -8.25 14.25 C-11.1875 12.625 -11.1875 12.625 -13.25 10.25 C-13.91102394 6.72453897 -13.79864293 5.06781627 -11.79296875 2.078125 C-7.98796196 -0.65727158 -4.55845681 -0.18518731 0 0 Z " fill="#F7F9F5" transform="translate(667.25,573.75)"/>
<path d="M0 0 C3 1 3 1 4.75390625 3.94921875 C5.36710969 5.19025738 5.96958532 6.43664129 6.5625 7.6875 C6.86607422 8.30044922 7.16964844 8.91339844 7.48242188 9.54492188 C10.12344067 14.9708058 12.35921236 19.89338995 12 26 C12.99 26 13.98 26 15 26 C15 27.98 15 29.96 15 32 C12.36 32 9.72 32 7 32 C6.87625 31.46375 6.7525 30.9275 6.625 30.375 C4.83182692 23.5609423 1.94376869 17.65539649 -1.48242188 11.53515625 C-4.15069836 6.54982067 -4.15069836 6.54982067 -3.35546875 3.6484375 C-2 2 -2 2 0 0 Z " fill="#58A058" transform="translate(539,350)"/>
<path d="M0 0 C1.6396875 0.2475 1.6396875 0.2475 3.3125 0.5 C6.87525873 1.06718184 6.87525873 1.06718184 10 1 C6.33333333 8.33333333 2.66666667 15.66666667 -1 23 C-3.31 23 -5.62 23 -8 23 C-7.51986454 14.67765207 -4.6256993 6.93854894 0 0 Z " fill="#F0F4F5" transform="translate(429,399)"/>
<path d="M0 0 C9.045261 5.50989911 17.52320571 11.66465958 26 18 C27.35351562 19.00933594 27.35351562 19.00933594 28.734375 20.0390625 C30.49295564 21.35487993 32.24721674 22.67646978 34 24 C33 27 33 27 31.33984375 28.17578125 C20.48585026 31.99914123 4.41604972 28.62020441 -7 28 C-7 27.01 -7 26.02 -7 25 C5.54 25 18.08 25 31 25 C26.6996875 22.0609375 26.6996875 22.0609375 22.3125 19.0625 C14.52265964 13.73550544 6.75006723 8.38469662 -1 3 C-0.67 2.01 -0.34 1.02 0 0 Z " fill="#E4EAEE" transform="translate(433,409)"/>
<path d="M0 0 C0.99 0.33 1.98 0.66 3 1 C3 2.32 3 3.64 3 5 C1.36059405 6.04409094 -0.31383699 7.03323628 -2 8 C-4.8474208 10.66169975 -7.46554279 13.56260155 -10.09570312 16.4375 C-13.55616312 20.05767354 -15.75095051 21.79415492 -21 22 C-21.08069658 19.04112541 -21.14034665 16.0844341 -21.1875 13.125 C-21.21263672 12.28324219 -21.23777344 11.44148438 -21.26367188 10.57421875 C-21.27333984 9.76855469 -21.28300781 8.96289062 -21.29296875 8.1328125 C-21.3086792 7.38918457 -21.32438965 6.64555664 -21.34057617 5.87939453 C-21.22818604 5.25919434 -21.1157959 4.63899414 -21 4 C-20.01 3.34 -19.02 2.68 -18 2 C-17.67 6.62 -17.34 11.24 -17 16 C-15.41058594 14.39318359 -15.41058594 14.39318359 -13.7890625 12.75390625 C-12.40117363 11.35663975 -11.01314558 9.95951147 -9.625 8.5625 C-8.92632813 7.85544922 -8.22765625 7.14839844 -7.5078125 6.41992188 C-6.8375 5.74638672 -6.1671875 5.07285156 -5.4765625 4.37890625 C-4.85861816 3.7557251 -4.24067383 3.13254395 -3.60400391 2.49047852 C-2 1 -2 1 0 0 Z " fill="#F4F7F2" transform="translate(523,352)"/>
<path d="M0 0 C3.16115776 1.36983503 3.9927092 1.9890638 6 5 C5.34773438 5.76183594 4.69546875 6.52367187 4.0234375 7.30859375 C-1.06584295 13.30354408 -5.84036038 19.30399476 -10 26 C-10.94314127 22.58389775 -11.08065117 19.54865136 -11 16 C-11.66 15.67 -12.32 15.34 -13 15 C-11.02132918 12.68707408 -9.04208794 10.37464074 -7.0625 8.0625 C-6.49853516 7.40314453 -5.93457031 6.74378906 -5.35351562 6.06445312 C-4.81533203 5.43603516 -4.27714844 4.80761719 -3.72265625 4.16015625 C-3.22515869 3.57886963 -2.72766113 2.99758301 -2.21508789 2.39868164 C-1.5013317 1.57708043 -0.76957015 0.76957015 0 0 Z " fill="#2E6B7A" transform="translate(444,367)"/>
<path d="M0 0 C3.35227527 2.4963752 4.80693091 3.84158547 5.5 8 C4.94579843 11.32520944 4.04231709 13.32927766 2 16 C1.34 16 0.68 16 0 16 C-0.66 15.01 -1.32 14.02 -2 13 C-4.52733235 12.34444881 -4.52733235 12.34444881 -7 12 C-7.33 11.67 -7.66 11.34 -8 11 C-8 8.66666667 -8 6.33333333 -8 4 C-8.42854995 1.68963085 -8.42854995 1.68963085 -9 0 C-5.77509551 -1.61245225 -3.43772273 -0.81573082 0 0 Z " fill="#3F817E" transform="translate(532,432)"/>
<path d="M0 0 C16.17 0 32.34 0 49 0 C49 0.99 49 1.98 49 3 C33.16 3 17.32 3 1 3 C0.67 2.01 0.34 1.02 0 0 Z " fill="#1B646F" transform="translate(469,439)"/>
<path d="M0 0 C0.495 0.99 0.495 0.99 1 2 C-0.0147036 4.27412984 -1.08061312 6.43236391 -2.25 8.625 C-4.86280208 13.66439109 -7.16884379 18.61424644 -9 24 C-9.5534764 21.92446352 -10 20.15634036 -10 18 C-10.91326201 19.36989301 -11.82554867 20.74044147 -12.734375 22.11328125 C-13.60556558 23.41200054 -14.49194994 24.7006141 -15.390625 25.98046875 C-19.57311231 32.02306226 -22.83816664 38.37360456 -26 45 C-25.34 45.33 -24.68 45.66 -24 46 C-24.61875 46.4125 -25.2375 46.825 -25.875 47.25 C-28.06768281 49.05573879 -28.92788417 50.4090534 -30 53 C-30.99 53 -31.98 53 -33 53 C-25.65547082 33.70260961 -12.64232459 16.15408141 0 0 Z " fill="#317E6E" transform="translate(305,348)"/>
<path d="M0 0 C0.58644287 0.22631104 1.17288574 0.45262207 1.77709961 0.68579102 C1.23344419 4.66995192 -0.65755224 6.4694233 -3.47680664 9.23266602 C-4.33081055 10.07700195 -5.18481445 10.92133789 -6.06469727 11.79125977 C-6.9625293 12.66395508 -7.86036133 13.53665039 -8.78540039 14.43579102 C-10.13794922 15.76803711 -10.13794922 15.76803711 -11.51782227 17.12719727 C-13.74627137 19.32027416 -15.98141632 21.50605146 -18.22290039 23.68579102 C-18.88290039 22.69579102 -19.54290039 21.70579102 -20.22290039 20.68579102 C-17.84711077 14.93906971 -14.15674112 11.10286726 -9.78540039 6.74829102 C-9.11702148 6.05155273 -8.44864258 5.35481445 -7.76000977 4.63696289 C-7.10967773 3.98405273 -6.4593457 3.33114258 -5.78930664 2.65844727 C-5.20093018 2.06298096 -4.61255371 1.46751465 -4.00634766 0.85400391 C-2.22290039 -0.31420898 -2.22290039 -0.31420898 0 0 Z " fill="#419649" transform="translate(525.222900390625,357.314208984375)"/>
<path d="M0 0 C3.63 0 7.26 0 11 0 C11 3.63 11 7.26 11 11 C7.37 11 3.74 11 0 11 C0 7.37 0 3.74 0 0 Z " fill="#2F617C" transform="translate(389,387)"/>
<path d="M0 0 C1.65 0.99 3.3 1.98 5 3 C5 7.53453387 4.54615565 8.00999803 1.625 11.1875 C0.68527344 12.22970703 0.68527344 12.22970703 -0.2734375 13.29296875 C-2 15 -2 15 -4 16 C-5.65 14.35 -7.3 12.7 -9 11 C-6.03 7.37 -3.06 3.74 0 0 Z " fill="#489364" transform="translate(460,350)"/>
<path d="M0 0 C4.28493985 3.19270028 8.53989014 6.41599699 12.75830078 9.69628906 C18.35751747 14.04345643 24.01201665 18.193685 30 22 C28.68 23.32 27.36 24.64 26 26 C21.36541155 22.11987944 16.88157731 18.09521186 12.4375 14 C11.89585205 13.50209961 11.3542041 13.00419922 10.79614258 12.49121094 C9.18785718 11.00394262 7.59082573 9.50592347 6 8 C5.42652832 7.45859375 4.85305664 6.9171875 4.26220703 6.359375 C2.80117465 4.94677226 1.39551764 3.47736003 0 2 C0 1.34 0 0.68 0 0 Z " fill="#2E3B67" transform="translate(309,687)"/>
<path d="M0 0 C0.99 0.33 1.98 0.66 3 1 C3 6.28 3 11.56 3 17 C2.67 17 2.34 17 2 17 C1.67 12.38 1.34 7.76 1 3 C-0.98632812 4.54492188 -2.97265625 6.08984375 -4.95898438 7.63476562 C-7.3671875 9.5078125 -9.77539062 11.38085938 -12.18359375 13.25390625 C-12.9710498 13.86637207 -13.75850586 14.47883789 -14.56982422 15.10986328 C-15.37178223 15.7336084 -16.17374023 16.35735352 -17 17 C-17.85996582 17.6688623 -18.71993164 18.33772461 -19.60595703 19.02685547 C-21.73730469 20.68457031 -23.86865234 22.34228516 -26 24 C-26.33 23.01 -26.66 22.02 -27 21 C-20.66551771 15.20581179 -13.90850504 10.08648173 -7 5 C-6.2678125 4.4328125 -5.535625 3.865625 -4.78125 3.28125 C-2.9375 1.875 -2.9375 1.875 0 0 Z " fill="#E1E5EA" transform="translate(466,443)"/>
<path d="M0 0 C0.66 0.33 1.32 0.66 2 1 C-1.465 8.425 -1.465 8.425 -5 16 C-4.34 16 -3.68 16 -3 16 C-3.64204231 19.07885517 -4.68771826 21.5140801 -6.21484375 24.2578125 C-6.65376953 25.04800781 -7.09269531 25.83820313 -7.54492188 26.65234375 C-8.00447266 27.46832031 -8.46402344 28.28429687 -8.9375 29.125 C-9.39318359 29.94871094 -9.84886719 30.77242188 -10.31835938 31.62109375 C-13.73623029 37.73623029 -13.73623029 37.73623029 -16 40 C-15.36733374 34.43253693 -13.47140394 29.64518541 -11.375 24.5 C-11.02179688 23.62375977 -10.66859375 22.74751953 -10.3046875 21.84472656 C-7.24163814 14.35939968 -3.78581793 7.14573134 0 0 Z " fill="#2A7C6B" transform="translate(315,347)"/>
<path d="M0 0 C0.66 0.33 1.32 0.66 2 1 C1.55720703 1.40726318 1.11441406 1.81452637 0.65820312 2.23413086 C-13.76939849 14.76612644 -13.76939849 14.76612644 -24.93359375 30.03125 C-26.38840164 32.71704919 -28.00147845 35.28803343 -29.625 37.875 C-30.21539062 38.82117188 -30.80578125 39.76734375 -31.4140625 40.7421875 C-33 43 -33 43 -35 44 C-33.49774324 38.35079494 -30.67544257 34.03077411 -27.4375 29.25 C-26.89738281 28.45013672 -26.35726563 27.65027344 -25.80078125 26.82617188 C-18.50052352 16.17852108 -10.03929739 7.9838744 0 0 Z " fill="#3A9065" transform="translate(352,302)"/>
<path d="M0 0 C13.37640574 -0.12242557 26.65324871 0.07726164 40 1 C36.56305785 4.19324698 34.17900153 4.35293203 29.5625 4.25 C28.2528125 4.22421875 26.943125 4.1984375 25.59375 4.171875 C17.05828962 3.87518787 8.52788397 3.46329784 0 3 C0 2.01 0 1.02 0 0 Z " fill="#B8C7D2" transform="translate(426,434)"/>
<path d="M0 0 C3.9463911 1.39368046 6.96486535 3.25017442 10.3125 5.75 C11.26382813 6.45640625 12.21515625 7.1628125 13.1953125 7.890625 C14.58363281 8.93476563 14.58363281 8.93476563 16 10 C16.82242188 10.61359375 17.64484375 11.2271875 18.4921875 11.859375 C20.3321125 13.23440792 22.16811918 14.61427926 24 16 C20.02358462 16 17.43445656 14.20962186 14.0625 12.3125 C7.52887552 8.72072108 0.95949349 5.69566973 -6 3 C-2.28125 1.8828125 -2.28125 1.8828125 0.25 2.9375 C0.8275 3.288125 1.405 3.63875 2 4 C1.34 2.68 0.68 1.36 0 0 Z " fill="#85C249" transform="translate(651,289)"/>
<path d="M0 0 C1.50543133 4.75392322 0.20037524 8.43643678 -1.0625 13.125 C-1.35157227 14.36056641 -1.35157227 14.36056641 -1.64648438 15.62109375 C-2.26118536 17.91823321 -2.85653285 19.913614 -4 22 C-7.18359375 23.5546875 -7.18359375 23.5546875 -10 24 C-10.33 23.34 -10.66 22.68 -11 22 C-9.82008093 19.53587608 -8.59007966 17.18746995 -7.25 14.8125 C-4.54600558 9.95979573 -2.10817617 5.14368299 0 0 Z " fill="#306D74" transform="translate(736,618)"/>
<path d="M0 0 C0.66 0.33 1.32 0.66 2 1 C-4.86541113 6.2274704 -11.74095119 11.32561251 -19 16 C-19.66 14.68 -20.32 13.36 -21 12 C-18.92660359 9.7512576 -17.02167356 8.33076735 -14.27734375 6.9921875 C-13.57416016 6.64542969 -12.87097656 6.29867187 -12.14648438 5.94140625 C-11.41751953 5.58949219 -10.68855469 5.23757813 -9.9375 4.875 C-9.20466797 4.51535156 -8.47183594 4.15570312 -7.71679688 3.78515625 C-5.81357954 2.85189816 -3.90700696 1.92548978 -2 1 C-1.34 0.67 -0.68 0.34 0 0 Z " fill="#486C8F" transform="translate(676,720)"/>
<path d="M0 0 C0.66 0 1.32 0 2 0 C2.48 6.24 2.48 6.24 0.5 9.375 C-3.0651508 11.69234802 -5.75628049 11.79465873 -10 12 C-10.66 11.67 -11.32 11.34 -12 11 C-11.34 9.35 -10.68 7.7 -10 6 C-8.906875 5.938125 -7.81375 5.87625 -6.6875 5.8125 C-2.8525473 5.40122736 -2.8525473 5.40122736 -1.1875 2.4375 C-0.795625 1.633125 -0.40375 0.82875 0 0 Z " fill="#55A04F" transform="translate(567,398)"/>
<path d="M0 0 C5.56818182 0.56818182 5.56818182 0.56818182 7 2 C7.25 4.9375 7.25 4.9375 7 8 C4 10 4 10 1.375 9.6875 C-1 9 -1 9 -2 8 C-2.1875 5.0625 -2.1875 5.0625 -2 2 C-1.34 1.34 -0.68 0.68 0 0 Z " fill="#F1F7EF" transform="translate(558,395)"/>
<path d="M0 0 C0.99 0.33 1.98 0.66 3 1 C3 2.32 3 3.64 3 5 C0.875 6.4375 0.875 6.4375 -2 8 C-4.06133538 9.60272446 -6.01973786 11.29605351 -8 13 C-8 12.34 -8 11.68 -8 11 C-9.65 11.66 -11.3 12.32 -13 13 C-4.85443038 2.91500904 -4.85443038 2.91500904 0 0 Z " fill="#AAD892" transform="translate(523,352)"/>
<path d="M0 0 C8.25 0 16.5 0 25 0 C24.01 0.495 24.01 0.495 23 1 C23 1.66 23 2.32 23 3 C15.74 3 8.48 3 1 3 C0.67 2.01 0.34 1.02 0 0 Z " fill="#115468" transform="translate(469,439)"/>
<path d="M0 0 C0.33 0 0.66 0 1 0 C1.34505396 3.1804216 1.31584705 4.5735256 -0.62060547 7.18823242 C-1.73266357 8.2610144 -1.73266357 8.2610144 -2.8671875 9.35546875 C-3.67027344 10.14244141 -4.47335937 10.92941406 -5.30078125 11.74023438 C-6.15027344 12.54783203 -6.99976563 13.35542969 -7.875 14.1875 C-8.71675781 15.00669922 -9.55851563 15.82589844 -10.42578125 16.66992188 C-11.98517873 18.18565622 -13.54963705 19.69621272 -15.12060547 21.19995117 C-16.42787924 22.45203347 -17.72002446 23.72002446 -19 25 C-19.66 24.34 -20.32 23.68 -21 23 C-20.39937744 22.40985107 -19.79875488 21.81970215 -19.17993164 21.21166992 C-16.95260016 19.01843575 -14.72981526 16.82072205 -12.51000977 14.61987305 C-11.54859153 13.66850843 -10.58538536 12.71894709 -9.62036133 11.77124023 C-8.2330945 10.40824879 -6.85277672 9.03819589 -5.47265625 7.66796875 C-4.64000244 6.84578857 -3.80734863 6.0236084 -2.94946289 5.17651367 C-0.80236105 3.06940381 -0.80236105 3.06940381 0 0 Z " fill="#F0F4F0" transform="translate(527,358)"/>
<path d="M0 0 C2.64 0 5.28 0 8 0 C8 2.64 8 5.28 8 8 C5.36 8 2.72 8 0 8 C0 5.36 0 2.72 0 0 Z " fill="#21527C" transform="translate(403,403)"/>
<path d="M0 0 C0.99 0 1.98 0 3 0 C3.3125 2.75 3.3125 2.75 3 6 C0.9375 8.4375 0.9375 8.4375 -2 10 C-5.8125 9.75 -5.8125 9.75 -9 9 C-9.625 6.625 -9.625 6.625 -10 4 C-9.34 3.34 -8.68 2.68 -8 2 C-7.01 3.485 -7.01 3.485 -6 5 C-4.35 4.67 -2.7 4.34 -1 4 C-0.67 2.68 -0.34 1.36 0 0 Z " fill="#213F6A" transform="translate(518,468)"/>
<path d="M0 0 C2.5625 0.1875 2.5625 0.1875 4.5625 2.1875 C4.8125 4.6875 4.8125 4.6875 4.5625 7.1875 C3.9025 7.8475 3.2425 8.5075 2.5625 9.1875 C-1.99305556 8.63194444 -1.99305556 8.63194444 -3.4375 7.1875 C-3.5625 4.1875 -3.5625 4.1875 -3.4375 1.1875 C-2.4375 0.1875 -2.4375 0.1875 0 0 Z " fill="#F4F8F7" transform="translate(527.4375,435.8125)"/>
<path d="M0 0 C4.6613779 -0.32521241 7.24064446 0.18048334 11 3 C13.4294516 6.6441774 13.16179575 8.71241272 13 13 C12.67 13 12.34 13 12 13 C12 11.35 12 9.7 12 8 C11.34 8 10.68 8 10 8 C9.67 8.99 9.34 9.98 9 11 C8.5978125 10.1028125 8.5978125 10.1028125 8.1875 9.1875 C7.1106021 6.95672092 7.1106021 6.95672092 5.375 5.375 C4.92125 4.92125 4.4675 4.4675 4 4 C4 3.34 4 2.68 4 2 C2.68 2 1.36 2 0 2 C0 1.34 0 0.68 0 0 Z " fill="#6FB162" transform="translate(557,390)"/>
<path d="M0 0 C-0.60430334 3.35796669 -1.77254627 5.27957027 -3.94140625 7.890625 C-4.52470703 8.59960938 -5.10800781 9.30859375 -5.70898438 10.0390625 C-6.32064453 10.76867187 -6.93230469 11.49828125 -7.5625 12.25 C-8.17802734 12.99507813 -8.79355469 13.74015625 -9.42773438 14.5078125 C-10.94583464 16.34365468 -12.47002437 18.17405355 -14 20 C-14.64453125 18.15625 -14.64453125 18.15625 -15 16 C-12.6875 13.5 -12.6875 13.5 -10 11 C-9.32255932 9.67210831 -8.65658507 8.33832667 -8 7 C-7.04119966 5.71812563 -6.04006043 4.4668707 -5 3.25 C-4.484375 2.63640625 -3.96875 2.0228125 -3.4375 1.390625 C-2 0 -2 0 0 0 Z " fill="#317F6D" transform="translate(328,342)"/>
<path d="M0 0 C7.875 6.75 7.875 6.75 10.4375 10.375 C10.93121094 11.06335938 11.42492187 11.75171875 11.93359375 12.4609375 C12.28550781 12.96882813 12.63742187 13.47671875 13 14 C10.06623222 12.70789376 8.31475428 11.48420965 6.375 8.9375 C4.32880603 5.99175287 4.32880603 5.99175287 2 5 C1.67 12.92 1.34 20.84 1 29 C0.67 29 0.34 29 0 29 C0 19.43 0 9.86 0 0 Z " fill="#80C069" transform="translate(504,325)"/>
<path d="M0 0 C0.33 0.66 0.66 1.32 1 2 C-0.21484375 4.8203125 -0.21484375 4.8203125 -1.9375 8.125 C-2.50339844 9.22070312 -3.06929688 10.31640625 -3.65234375 11.4453125 C-4.09707031 12.28835938 -4.54179687 13.13140625 -5 14 C-4.34 14.33 -3.68 14.66 -3 15 C-3.928125 15.61875 -3.928125 15.61875 -4.875 16.25 C-7.06768281 18.05573879 -7.92788417 19.4090534 -9 22 C-9.99 22 -10.98 22 -12 22 C-10.3535602 17.56661784 -8.22726548 13.47248317 -6 9.3125 C-5.64421875 8.63638672 -5.2884375 7.96027344 -4.921875 7.26367188 C-3.4676778 4.53705213 -2.1977126 2.1977126 0 0 Z " fill="#27726A" transform="translate(284,379)"/>
<path d="M0 0 C0.99 0.33 1.98 0.66 3 1 C2.47729735 5.90309806 0.9987369 9.18388507 -1.5625 13.375 C-2.20316406 14.43460938 -2.84382812 15.49421875 -3.50390625 16.5859375 C-3.99761719 17.38257813 -4.49132812 18.17921875 -5 19 C-6.4216868 14.73493961 -4.65386682 11.79962257 -3.0625 7.8125 C-2.77181641 7.06291016 -2.48113281 6.31332031 -2.18164062 5.54101562 C-1.46274964 3.69075523 -0.73245347 1.84493352 0 0 Z " fill="#2F7077" transform="translate(743,631)"/>
<path d="M0 0 C0.66 0 1.32 0 2 0 C1.82984375 0.6084375 1.6596875 1.216875 1.484375 1.84375 C-0.82405719 10.19339836 -2.92147082 18.5909251 -5 27 C-6.16210276 22.85361734 -6.20807155 19.30014536 -6 15 C-5.34 14.34 -4.68 13.68 -4 13 C-4.020625 12.278125 -4.04125 11.55625 -4.0625 10.8125 C-3.97862841 7.03827863 -2.75184989 2.75184989 0 0 Z " fill="#2D6F6A" transform="translate(287,391)"/>
<path d="M0 0 C1.125 1.5625 1.125 1.5625 2 4 C1.3909893 6.34904126 0.71927295 8.68234271 0 11 C-0.039992 12.99960012 -0.04346799 15.00047242 0 17 C-0.48331129 20.383179 -1.34073621 23.01332518 -3 26 C-3.33 26 -3.66 26 -4 26 C-2.76311031 5.52622061 -2.76311031 5.52622061 0 0 Z " fill="#2F7170" transform="translate(752,590)"/>
<path d="M0 0 C1.32 1.32 2.64 2.64 4 4 C1.36 6.64 -1.28 9.28 -4 12 C-4.66 11.01 -5.32 10.02 -6 9 C-4.3619751 5.48994665 -2.96865509 2.54456151 0 0 Z " fill="#3F8C59" transform="translate(511,369)"/>
<path d="M0 0 C2.31 0 4.62 0 7 0 C7 2.31 7 4.62 7 7 C4.69 7 2.38 7 0 7 C0 4.69 0 2.38 0 0 Z " fill="#72B55C" transform="translate(576,391)"/>
<path d="M0 0 C2.31 0 4.62 0 7 0 C7 2.31 7 4.62 7 7 C4.69 7 2.38 7 0 7 C0 4.69 0 2.38 0 0 Z " fill="#3F8885" transform="translate(391,367)"/>
<path d="M0 0 C3.02515469 0.32412372 3.91241339 0.89828652 5.9375 3.25 C6.618125 4.1575 7.29875 5.065 8 6 C9.64783606 7.68528688 11.31002677 9.35697047 13 11 C12.01 11.66 11.02 12.32 10 13 C2.03392059 5.23034446 2.03392059 5.23034446 0 2 C0 1.34 0 0.68 0 0 Z " fill="#1C2E5E" transform="translate(291,656)"/>
<path d="M0 0 C0.66 0.33 1.32 0.66 2 1 C1.60167969 1.51949219 1.20335937 2.03898437 0.79296875 2.57421875 C-0.00173828 3.62029297 -0.00173828 3.62029297 -0.8125 4.6875 C-1.33457031 5.37199219 -1.85664063 6.05648438 -2.39453125 6.76171875 C-4.07634339 9.10643494 -5.53720363 11.51324616 -7 14 C-8.1789089 15.92196284 -9.36657161 17.83858098 -10.5625 19.75 C-11.16191406 20.71421875 -11.76132812 21.6784375 -12.37890625 22.671875 C-14 25 -14 25 -16 26 C-14.48550786 20.13134294 -11.37462241 15.68458938 -8 10.75 C-7.4534375 9.9353125 -6.906875 9.120625 -6.34375 8.28125 C-2.31058673 2.31058673 -2.31058673 2.31058673 0 0 Z " fill="#308668" transform="translate(333,320)"/>
<path d="M0 0 C5.33333333 4 10.66666667 8 16 12 C15.34 13.32 14.68 14.64 14 16 C11.65861457 13.71643754 9.32833018 11.42186626 7 9.125 C5.99839844 8.14853516 5.99839844 8.14853516 4.9765625 7.15234375 C4.34492188 6.52714844 3.71328125 5.90195312 3.0625 5.2578125 C2.47597656 4.6817627 1.88945312 4.10571289 1.28515625 3.51220703 C0 2 0 2 0 0 Z " fill="#4B567D" transform="translate(309,687)"/>
<path d="M0 0 C0.33 0 0.66 0 1 0 C1.05425226 2.39614126 1.09379027 4.79103853 1.125 7.1875 C1.15013672 8.19780273 1.15013672 8.19780273 1.17578125 9.22851562 C1.21538674 13.28807807 0.80020002 16.34998815 -1 20 C-1.33 20 -1.66 20 -2 20 C-2.05379226 17.04142591 -2.09357093 14.08382279 -2.125 11.125 C-2.14175781 10.28324219 -2.15851563 9.44148438 -2.17578125 8.57421875 C-2.18222656 7.76855469 -2.18867188 6.96289062 -2.1953125 6.1328125 C-2.21102295 5.01737061 -2.21102295 5.01737061 -2.22705078 3.87939453 C-2 2 -2 2 0 0 Z " fill="#E3ECE1" transform="translate(504,354)"/>
<path d="M0 0 C0.66 0.99 1.32 1.98 2 3 C1.34 3 0.68 3 0 3 C-0.226875 3.53625 -0.45375 4.0725 -0.6875 4.625 C-2.43382056 7.78500863 -4.6402849 10.2676983 -7 13 C-8.32 12.34 -9.64 11.68 -11 11 C-7.33333333 7.33333333 -3.66666667 3.66666667 0 0 Z " fill="#D9DDE5" transform="translate(467,461)"/>
<path d="M0 0 C3.16115776 1.36983503 3.9927092 1.9890638 6 5 C5.01 6.32 4.02 7.64 3 9 C2.01 8.67 1.02 8.34 0 8 C0 7.01 0 6.02 0 5 C-0.99 5 -1.98 5 -3 5 C-1.125 1.125 -1.125 1.125 0 0 Z " fill="#27686D" transform="translate(444,367)"/>
<path d="M0 0 C0 1.65 0 3.3 0 5 C-0.5775 5.0825 -1.155 5.165 -1.75 5.25 C-4.66899201 6.22299734 -5.9345107 7.74087108 -8 10 C-10.57441077 12.81576178 -12.15825448 14.45117921 -16 15 C-3.8125 0 -3.8125 0 0 0 Z " fill="#6BB554" transform="translate(501,326)"/>
<path d="M0 0 C0.66 0.33 1.32 0.66 2 1 C1.40574219 1.4125 0.81148438 1.825 0.19921875 2.25 C-6.26142046 6.75134738 -12.64612516 11.34935017 -19 16 C-19 15.01 -19 14.02 -19 13 C-17.47119141 11.57373047 -17.47119141 11.57373047 -15.3515625 10.1171875 C-14.59359375 9.58996094 -13.835625 9.06273437 -13.0546875 8.51953125 C-12.25289063 7.97683594 -11.45109375 7.43414062 -10.625 6.875 C-9.8309375 6.32457031 -9.036875 5.77414062 -8.21875 5.20703125 C-2.43645368 1.21822684 -2.43645368 1.21822684 0 0 Z " fill="#3D945F" transform="translate(375,286)"/>
<path d="M0 0 C0.99 0.33 1.98 0.66 3 1 C3 6.28 3 11.56 3 17 C2.67 17 2.34 17 2 17 C1.67 12.38 1.34 7.76 1 3 C-1.31 4.65 -3.62 6.3 -6 8 C-6.66 7.34 -7.32 6.68 -8 6 C-6.7391988 4.96680187 -5.46596742 3.94875621 -4.1875 2.9375 C-3.47980469 2.36902344 -2.77210938 1.80054688 -2.04296875 1.21484375 C-1.36878906 0.81394531 -0.69460938 0.41304688 0 0 Z " fill="#B7C2CE" transform="translate(466,443)"/>
<path d="M0 0 C1.98 0 3.96 0 6 0 C6 2.31 6 4.62 6 7 C4.02 7 2.04 7 0 7 C0 4.69 0 2.38 0 0 Z " fill="#499582" transform="translate(423,359)"/>
<path d="M0 0 C1.67542976 0.28604898 3.34385343 0.61781233 5 1 C5 2.65 5 4.3 5 6 C2.625 6.625 2.625 6.625 0 7 C-0.66 6.34 -1.32 5.68 -2 5 C-1.46428571 1.46428571 -1.46428571 1.46428571 0 0 Z " fill="#E7EAEE" transform="translate(512,467)"/>
<path d="M0 0 C-0.03515625 1.82421875 -0.03515625 1.82421875 -1 4 C-3.52660808 5.16039025 -5.79911344 6.02074041 -8.4375 6.8125 C-9.13166016 7.04130859 -9.82582031 7.27011719 -10.54101562 7.50585938 C-15.71352623 9.14323689 -15.71352623 9.14323689 -18 8 C-15.3773768 6.66180502 -12.75213401 5.3292849 -10.125 4 C-9.00544922 3.42765625 -9.00544922 3.42765625 -7.86328125 2.84375 C-7.14785156 2.4828125 -6.43242188 2.121875 -5.6953125 1.75 C-5.03547363 1.41484375 -4.37563477 1.0796875 -3.69580078 0.734375 C-2 0 -2 0 0 0 Z " fill="#496E8E" transform="translate(636,724)"/>
<path d="M0 0 C6.52307692 0.61538462 6.52307692 0.61538462 8.9375 2.5625 C9.288125 3.036875 9.63875 3.51125 10 4 C9.0022242 6.99332739 8.2477975 7.94766315 6 10 C5.896875 9.38125 5.79375 8.7625 5.6875 8.125 C5.12474627 5.63473516 5.12474627 5.63473516 2 4 C0.8125 1.875 0.8125 1.875 0 0 Z " fill="#314C74" transform="translate(511,462)"/>
<path d="M0 0 C0.99 0.66 1.98 1.32 3 2 C1.04754815 3.19714555 -0.91214997 4.38248074 -2.875 5.5625 C-3.96554687 6.22378906 -5.05609375 6.88507812 -6.1796875 7.56640625 C-7.11039063 8.03949219 -8.04109375 8.51257813 -9 9 C-9.66 8.67 -10.32 8.34 -11 8 C-10 5 -10 5 -6.5625 3.25 C-5.386875 2.8375 -4.21125 2.425 -3 2 C-2.34 2.33 -1.68 2.66 -1 3 C-0.67 2.01 -0.34 1.02 0 0 Z " fill="#2E577D" transform="translate(650,737)"/>
<path d="M0 0 C4.83915573 0.68987964 9.54468406 1.98792183 14 4 C10.09547658 5.30150781 6.79539691 4.62254053 2.8125 4.0625 C2.06291016 3.96259766 1.31332031 3.86269531 0.54101562 3.75976562 C-1.30681482 3.51260359 -3.1535266 3.25710389 -5 3 C-4.360625 2.690625 -3.72125 2.38125 -3.0625 2.0625 C-1.06389179 1.1654837 -1.06389179 1.1654837 0 0 Z " fill="#516483" transform="translate(439,733)"/>
<path d="M0 0 C-0.125 2.3125 -0.125 2.3125 -1 5 C-4.0625 6.8125 -4.0625 6.8125 -7 8 C-7.6875 6.1875 -7.6875 6.1875 -8 4 C-5.87874759 1.13630924 -3.62654727 0 0 0 Z " fill="#2E567C" transform="translate(663,728)"/>
<path d="M0 0 C2.86724686 0.57344937 3.8614515 0.8614515 6 3 C5.625 6.625 5.625 6.625 5 10 C4.01 9.67 3.02 9.34 2 9 C1.375 7.25 1.375 7.25 1 5 C0.814375 4.0925 0.62875 3.185 0.4375 2.25 C0.293125 1.5075 0.14875 0.765 0 0 Z " fill="#215B6E" transform="translate(713,663)"/>
<path d="M0 0 C1.98 0 3.96 0 6 0 C6 1.98 6 3.96 6 6 C4.02 6 2.04 6 0 6 C0 4.02 0 2.04 0 0 Z " fill="#21767B" transform="translate(404,375)"/>
<path d="M0 0 C0.33 0 0.66 0 1 0 C1 7.92 1 15.84 1 24 C2.32 23.67 3.64 23.34 5 23 C3.35 24.65 1.7 26.3 0 28 C0 18.76 0 9.52 0 0 Z " fill="#4E9F4E" transform="translate(505,341)"/>
<path d="M0 0 C0.33 0.66 0.66 1.32 1 2 C1.66 2 2.32 2 3 2 C1.63408831 5.54243452 0.09068516 8.92627929 -1.625 12.3125 C-2.07101562 13.19550781 -2.51703125 14.07851563 -2.9765625 14.98828125 C-3.48316406 15.98408203 -3.48316406 15.98408203 -4 17 C-5.3274855 13.01754349 -3.99907829 10.55210457 -2.5625 6.8125 C-2.19801758 5.83120117 -2.19801758 5.83120117 -1.82617188 4.83007812 C-1.2256707 3.21696714 -0.61390797 1.6080565 0 0 Z " fill="#509789" transform="translate(304,370)"/>
<path d="M0 0 C0.33 0.66 0.66 1.32 1 2 C1.5775 2.28875 2.155 2.5775 2.75 2.875 C5.514714 4.257357 7.69337011 5.94966232 10 8 C10 8.66 10 9.32 10 10 C6.56049636 9.38801624 4.48435515 8.07941153 1.75 5.9375 C1.04359375 5.38964844 0.3371875 4.84179688 -0.390625 4.27734375 C-0.92171875 3.85582031 -1.4528125 3.43429687 -2 3 C-1.34 2.67 -0.68 2.34 0 2 C0 1.34 0 0.68 0 0 Z " fill="#E3ECEC" transform="translate(446,389)"/>
<path d="M0 0 C0.33 0 0.66 0 1 0 C1.36795695 3.2828659 1.3231932 4.58663012 -0.75 7.23828125 C-1.4925 7.92277344 -2.235 8.60726563 -3 9.3125 C-3.7425 10.00988281 -4.485 10.70726562 -5.25 11.42578125 C-6.11625 12.20501953 -6.11625 12.20501953 -7 13 C-7.99 12.67 -8.98 12.34 -10 12 C-9.04287109 11.07767578 -9.04287109 11.07767578 -8.06640625 10.13671875 C-6.82697266 8.92435547 -6.82697266 8.92435547 -5.5625 7.6875 C-4.73878906 6.88699219 -3.91507813 6.08648437 -3.06640625 5.26171875 C-0.80596523 3.09529192 -0.80596523 3.09529192 0 0 Z " fill="#E3EFE1" transform="translate(527,358)"/>
<path d="M0 0 C2 2 2 2 2.375 4.0625 C1.81857431 8.42116791 -0.08568786 12.07736932 -2 16 C-3.3805087 12.23331402 -2.59568159 9.55210827 -1.5625 5.75 C-1.27503906 4.67234375 -0.98757812 3.5946875 -0.69140625 2.484375 C-0.46324219 1.66453125 -0.23507813 0.8446875 0 0 Z " fill="#2E6375" transform="translate(254,446)"/>
<path d="M0 0 C-0.3125 2.375 -0.3125 2.375 -1 5 C-1.99 5.66 -2.98 6.32 -4 7 C-4 6.34 -4 5.68 -4 5 C-5.65 5.66 -7.3 6.32 -9 7 C-8.07347299 5.82460004 -7.13336613 4.65989423 -6.1875 3.5 C-5.66542969 2.8503125 -5.14335938 2.200625 -4.60546875 1.53125 C-3 0 -3 0 0 0 Z " fill="#C1DEB7" transform="translate(519,358)"/>
<path d="M0 0 C0.99 0 1.98 0 3 0 C3.36923077 5.53846154 3.36923077 5.53846154 1.5 7.875 C0.7575 8.431875 0.7575 8.431875 0 9 C-0.99 8.67 -1.98 8.34 -3 8 C-2.01 5.36 -1.02 2.72 0 0 Z " fill="#193868" transform="translate(518,468)"/>
<path d="M0 0 C0.66 0.99 1.32 1.98 2 3 C1.13671875 5.59375 1.13671875 5.59375 -0.3125 8.5 C-1.70609521 11.34064339 -2.99862637 13.99587912 -4 17 C-4.66 17 -5.32 17 -6 17 C-4.33846988 11.14340094 -2.52958084 5.5409866 0 0 Z " fill="#327576" transform="translate(267,410)"/>
<path d="M0 0 C0.99 0.66 1.98 1.32 3 2 C2.67 3.98 2.34 5.96 2 8 C0.68 8.33 -0.64 8.66 -2 9 C-1.125 2.25 -1.125 2.25 0 0 Z " fill="#318073" transform="translate(307,363)"/>
<path d="M0 0 C2.375 0.6875 2.375 0.6875 5 2 C6.56938028 4.91456338 7 6.67941669 7 10 C5.82438854 8.90536178 4.6597511 7.79892814 3.5 6.6875 C2.52546875 5.76517578 2.52546875 5.76517578 1.53125 4.82421875 C0 3 0 3 0 0 Z " fill="#212D5C" transform="translate(324,700)"/>
<path d="M0 0 C-0.5 1.9375 -0.5 1.9375 -2 4 C-4.69658452 4.68790422 -7.2017019 4.81946464 -10 5 C-10 4.34 -10 3.68 -10 3 C-8.68 3 -7.36 3 -6 3 C-6 2.34 -6 1.68 -6 1 C-3.92446352 0.4465236 -2.15634036 0 0 0 Z " fill="#5DA555" transform="translate(567,405)"/>
<path d="M0 0 C2.31 0 4.62 0 7 0 C5.515 2.475 5.515 2.475 4 5 C2.68 4.67 1.36 4.34 0 4 C0 2.68 0 1.36 0 0 Z " fill="#22537F" transform="translate(706,680)"/>
<path d="M0 0 C1.12377697 3.30435084 0.89554742 5.0506862 -0.4375 8.25 C-0.72496094 8.95640625 -1.01242187 9.6628125 -1.30859375 10.390625 C-1.53675781 10.92171875 -1.76492188 11.4528125 -2 12 C-2.66 12 -3.32 12 -4 12 C-3.33501617 7.61110675 -1.81242323 4.0188515 0 0 Z " fill="#3D797F" transform="translate(736,618)"/>
<path d="M0 0 C0.66 0.33 1.32 0.66 2 1 C-5.11389522 9.81548975 -5.11389522 9.81548975 -10 11 C-6.79239749 7.19364503 -3.59253891 3.45436433 0 0 Z " fill="#52A95A" transform="translate(528,362)"/>
<path d="M0 0 C4.455 2.97 4.455 2.97 9 6 C8.01 6.66 7.02 7.32 6 8 C3.69 6.35 1.38 4.7 -1 3 C-0.67 2.01 -0.34 1.02 0 0 Z " fill="#D8E3E7" transform="translate(433,409)"/>
<path d="M0 0 C0.99 0.33 1.98 0.66 3 1 C0.69 3.31 -1.62 5.62 -4 8 C-4.66 7.34 -5.32 6.68 -6 6 C-4.02 4.02 -2.04 2.04 0 0 Z " fill="#75B75B" transform="translate(488,315)"/>
<path d="M0 0 C1.61949011 2.57213134 2.04408751 3.67669159 1.625 6.75 C1.41875 7.4925 1.2125 8.235 1 9 C-0.32 8.34 -1.64 7.68 -3 7 C-3 6.34 -3 5.68 -3 5 C-2.34 4.67 -1.68 4.34 -1 4 C-0.34786708 1.97536745 -0.34786708 1.97536745 0 0 Z " fill="#418582" transform="translate(523,439)"/>
<path d="M0 0 C6.625 -0.25 6.625 -0.25 10 2 C5.545 2.495 5.545 2.495 1 3 C0.67 2.01 0.34 1.02 0 0 Z " fill="#185571" transform="translate(469,439)"/>
<path d="M0 0 C0.66 0.33 1.32 0.66 2 1 C0.63016497 4.16115776 0.0109362 4.9927092 -3 7 C-3.33 5.35 -3.66 3.7 -4 2 C-2.125 0.9375 -2.125 0.9375 0 0 Z " fill="#30776E" transform="translate(477,386)"/>
<path d="M0 0 C3.43950364 0.61198376 5.51564485 1.92058847 8.25 4.0625 C8.95640625 4.61035156 9.6628125 5.15820312 10.390625 5.72265625 C11.18726563 6.35494141 11.18726563 6.35494141 12 7 C8.55639368 7 7.25204608 6.20408468 4.3125 4.5 C3.50425781 4.0359375 2.69601562 3.571875 1.86328125 3.09375 C1.24839844 2.7328125 0.63351562 2.371875 0 2 C0 1.34 0 0.68 0 0 Z " fill="#83C350" transform="translate(663,298)"/>
<path d="M0 0 C3.36591866 1.44253657 5.51047079 3.33264727 8 6 C4.00095031 6 2.19799578 4.27413033 -1 2 C-0.67 1.34 -0.34 0.68 0 0 Z " fill="#D9E1E6" transform="translate(459,428)"/>
<path d="M0 0 C1.32 1.32 2.64 2.64 4 4 C2.68 4.99 1.36 5.98 0 7 C0 6.01 0 5.02 0 4 C-0.99 3.67 -1.98 3.34 -3 3 C-2.01 2.01 -1.02 1.02 0 0 Z " fill="#47965C" transform="translate(511,369)"/>
<path d="M0 0 C0.33 0.99 0.66 1.98 1 3 C-0.9375 5.6875 -0.9375 5.6875 -3 8 C-4.32 7.67 -5.64 7.34 -7 7 C-4.69 4.69 -2.38 2.38 0 0 Z " fill="#479653" transform="translate(519,361)"/>
<path d="M0 0 C2.91517292 1.07401108 4.77810176 1.77810176 7 4 C5.3125 4.6875 5.3125 4.6875 3 5 C0.25 3.5625 0.25 3.5625 -2 2 C-1.34 1.34 -0.68 0.68 0 0 Z " fill="#78BB3F" transform="translate(658,294)"/>
<path d="M0 0 C1.1875 1.5 1.1875 1.5 2 4 C1.27101296 6.78824238 0.1843275 9.37665092 -1 12 C-1.33 12 -1.66 12 -2 12 C-1.85904936 10.3745692 -1.71207913 8.74965949 -1.5625 7.125 C-1.48128906 6.22007812 -1.40007813 5.31515625 -1.31640625 4.3828125 C-1 2 -1 2 0 0 Z " fill="#3A7E77" transform="translate(752,590)"/>
<path d="M0 0 C0.33 0.66 0.66 1.32 1 2 C0.22265625 3.9453125 0.22265625 3.9453125 -0.9375 6.125 C-1.31777344 6.84945313 -1.69804687 7.57390625 -2.08984375 8.3203125 C-2.54037109 9.15175781 -2.54037109 9.15175781 -3 10 C-4.32 9.67 -5.64 9.34 -7 9 C-4.69 6.03 -2.38 3.06 0 0 Z " fill="#498F81" transform="translate(305,348)"/>
<path d="M0 0 C1.25 1.5625 1.25 1.5625 2 4 C0.93237266 6.57001015 -0.46544943 8.6530403 -2 11 C-3.13643966 7.59068103 -2.86747764 6.99664544 -1.5625 3.8125 C-1.13130859 2.73935547 -1.13130859 2.73935547 -0.69140625 1.64453125 C-0.46324219 1.10183594 -0.23507812 0.55914063 0 0 Z " fill="#4C8E91" transform="translate(740,639)"/>
<path d="M0 0 C0.33 0 0.66 0 1 0 C0.125 6.75 0.125 6.75 -1 9 C-1.66 9 -2.32 9 -3 9 C-2.44271087 5.65626525 -1.64826111 2.96687001 0 0 Z " fill="#2B6C72" transform="translate(752,617)"/>
<path d="M0 0 C0.33 0 0.66 0 1 0 C0.67 2.64 0.34 5.28 0 8 C-0.99 8 -1.98 8 -3 8 C-1.125 1.125 -1.125 1.125 0 0 Z " fill="#276F68" transform="translate(763,588)"/>
<path d="M0 0 C-1.49097658 3.7952131 -3.75700849 5.61042731 -7 8 C-4.18918919 0 -4.18918919 0 0 0 Z " fill="#253A68" transform="translate(394,505)"/>
<path d="M0 0 C0.99 0.33 1.98 0.66 3 1 C1.68 3.31 0.36 5.62 -1 8 C-1.99 7.34 -2.98 6.68 -4 6 C-2.68 4.02 -1.36 2.04 0 0 Z " fill="#285273" transform="translate(430,393)"/>
<path d="M0 0 C1.32 0 2.64 0 4 0 C4 2.31 4 4.62 4 7 C3.67 7 3.34 7 3 7 C3 5.35 3 3.7 3 2 C2.34 2 1.68 2 1 2 C0.67 2.99 0.34 3.98 0 5 C-0.5625 3.0625 -0.5625 3.0625 -1 1 C-0.67 0.67 -0.34 0.34 0 0 Z " fill="#74B46C" transform="translate(566,396)"/>
<path d="M0 0 C2.97 0 5.94 0 9 0 C9 0.99 9 1.98 9 3 C2.84765625 2.4140625 2.84765625 2.4140625 1 2 C0.67 1.34 0.34 0.68 0 0 Z " fill="#59A15B" transform="translate(552,285)"/>
<path d="M0 0 C2.31 0.33 4.62 0.66 7 1 C6.01 1.495 6.01 1.495 5 2 C5 2.99 5 3.98 5 5 C2 4 2 4 0.8125 1.9375 C0.544375 1.298125 0.27625 0.65875 0 0 Z " fill="#4C6488" transform="translate(511,462)"/>
<path d="M0 0 C0.33 0 0.66 0 1 0 C1.75 2.75 1.75 2.75 2 6 C0.0625 8.375 0.0625 8.375 -2 10 C-1.54177532 6.53058454 -1.10868317 3.32604951 0 0 Z " fill="#3C7380" transform="translate(257,436)"/>
<path d="M0 0 C0.33 0 0.66 0 1 0 C1 2.64 1 5.28 1 8 C-0.32 6.68 -1.64 5.36 -3 4 C-2.02727325 2.64664105 -1.0260734 1.31337396 0 0 Z " fill="#499276" transform="translate(468,365)"/>
<path d="M0 0 C0.66 0.33 1.32 0.66 2 1 C-0.84936103 4.00765886 -3.23511958 6.27845212 -7 8 C-6.02133662 6.85373678 -5.04205413 5.70800212 -4.0625 4.5625 C-3.51722656 3.92441406 -2.97195313 3.28632813 -2.41015625 2.62890625 C-1.63204305 1.73008851 -0.84063472 0.84063472 0 0 Z " fill="#68AD5B" transform="translate(481,322)"/>
<path d="M0 0 C1.24675325 4.98701299 1.24675325 4.98701299 0 8 C-0.99 8.33 -1.98 8.66 -3 9 C-2.01 6.03 -1.02 3.06 0 0 Z " fill="#2B7170" transform="translate(271,401)"/>
<path d="M0 0 C-0.33 1.32 -0.66 2.64 -1 4 C-2.65 4 -4.3 4 -6 4 C-6 3.34 -6 2.68 -6 2 C-2.25 0 -2.25 0 0 0 Z " fill="#52976A" transform="translate(506,379)"/>
<path d="M0 0 C0.66 0.33 1.32 0.66 2 1 C1.34 2.32 0.68 3.64 0 5 C-0.99 5 -1.98 5 -3 5 C-3.33 4.01 -3.66 3.02 -4 2 C-2.125 0.9375 -2.125 0.9375 0 0 Z " fill="#358956" transform="translate(458,360)"/>
<path d="M0 0 C0.99 0.33 1.98 0.66 3 1 C0.03 3.475 0.03 3.475 -3 6 C-3.66 5.67 -4.32 5.34 -5 5 C-3.35 3.35 -1.7 1.7 0 0 Z " fill="#5DAD56" transform="translate(490,335)"/>
</svg>
